<?xml version="1.0" encoding="UTF-8"?>
<svg id="Camada_1" xmlns="http://www.w3.org/2000/svg" version="1.1" xmlns:xlink="http://www.w3.org/1999/xlink" viewBox="0 0 144.18 175.1">
  <!-- Generator: Adobe Illustrator 30.0.0, SVG Export Plug-In . SVG Version: 2.1.1 Build 123)  -->
  <defs>
    <style>
      .st0, .st1 {
        fill: #273759;
      }

      .st1 {
        fill-rule: evenodd;
      }

      .st2 {
        fill: none;
      }

      .st3 {
        clip-path: url(#clippath);
      }
    </style>
    <clipPath id="clippath">
      <rect class="st2" width="144.18" height="175.1"/>
    </clipPath>
  </defs>
  <g class="st3">
    <path class="st0" d="M62.26,159.6v-49.47c0-.24.2-.44.44-.44h12.46c.24,0,.44.2.44.44v49.47c0,.24-.2.44-.44.44h-12.46c-.24,0-.44-.2-.44-.44"/>
    <path class="st0" d="M104.64,108.84c-14.36,0-26,11.64-26,26s11.64,26,26,26,26-11.64,26-26-11.64-26-26-26M104.64,147.8c-7.16,0-12.96-5.8-12.96-12.96s5.8-12.96,12.96-12.96,12.96,5.8,12.96,12.96-5.8,12.96-12.96,12.96"/>
    <path class="st0" d="M43.99,159.8l-8.21-16.57c-.07-.15-.23-.24-.39-.24h-5.93c-.24,0-.44.2-.44.44v16.18c0,.24-.2.44-.44.44h-12.1c-.24,0-.44-.2-.44-.44v-49.46c0-.24.2-.44.44-.44h24.77c11.17,0,17.51,7.4,17.51,16.76,0,8.47-5.01,13.12-9.57,14.92-.25.1-.35.39-.22.62l9.66,17.4c.16.29-.05.65-.38.65h-13.85c-.17,0-.32-.1-.39-.25M39.28,120.64h-9.83c-.24,0-.44.2-.44.44v10.44c0,.24.2.44.44.44h9.83c3.4,0,6.26-2.19,6.26-5.66s-2.87-5.66-6.26-5.66"/>
    <path class="st0" d="M22.49,92.33c.62.28,1.1.68,1.43,1.19.34.52.5,1.13.5,1.82s-.17,1.31-.5,1.82c-.34.51-.81.91-1.43,1.19-.62.28-1.35.42-2.19.42h-1.62v2.43h-2.63v-9.29h4.25c.84,0,1.57.14,2.19.42M21.36,96.35c.27-.23.41-.57.41-1s-.14-.77-.41-1.01c-.27-.24-.68-.36-1.22-.36h-1.46v2.72h1.46c.54,0,.95-.12,1.22-.35"/>
    <path class="st0" d="M32.41,98.73h-1.43v2.47h-2.63v-9.29h4.25c.84,0,1.57.14,2.19.42.62.28,1.1.68,1.43,1.19.34.52.5,1.13.5,1.82s-.16,1.26-.47,1.76c-.31.5-.76.89-1.35,1.17l2,2.92h-2.81l-1.69-2.47ZM33.66,94.34c-.27-.24-.68-.36-1.22-.36h-1.46v2.72h1.46c.54,0,.95-.12,1.22-.35.27-.23.41-.57.41-1s-.14-.77-.41-1.01"/>
    <polygon class="st0" points="48.28 99.17 48.28 101.2 40.82 101.2 40.82 91.91 48.11 91.91 48.11 93.94 43.42 93.94 43.42 95.51 47.55 95.51 47.55 97.47 43.42 97.47 43.42 99.17 48.28 99.17"/>
    <polygon class="st0" points="55.02 93.94 55.02 95.99 59.12 95.99 59.12 98.02 55.02 98.02 55.02 101.2 52.39 101.2 52.39 91.91 59.68 91.91 59.68 93.94 55.02 93.94"/>
    <polygon class="st0" points="71.02 99.17 71.02 101.2 63.56 101.2 63.56 91.91 70.85 91.91 70.85 93.94 66.16 93.94 66.16 95.51 70.29 95.51 70.29 97.47 66.16 97.47 66.16 99.17 71.02 99.17"/>
    <rect class="st0" x="75.13" y="91.91" width="2.63" height="9.29"/>
    <polygon class="st0" points="84.26 94 81.41 94 81.41 91.91 89.73 91.91 89.73 94 86.89 94 86.89 101.2 84.26 101.2 84.26 94"/>
    <path class="st0" d="M94.28,100.26c-.77-.75-1.15-1.82-1.15-3.2v-5.15h2.63v5.07c0,1.49.59,2.23,1.76,2.23s1.75-.74,1.75-2.23v-5.07h2.59v5.15c0,1.38-.38,2.44-1.15,3.2-.77.75-1.84,1.13-3.22,1.13s-2.45-.38-3.22-1.13"/>
    <path class="st0" d="M110.36,98.73h-1.43v2.47h-2.63v-9.29h4.25c.84,0,1.57.14,2.19.42.62.28,1.1.68,1.43,1.19.34.52.5,1.13.5,1.82s-.16,1.26-.47,1.76c-.31.5-.76.89-1.35,1.17l2,2.92h-2.81l-1.68-2.47ZM111.6,94.34c-.27-.24-.68-.36-1.22-.36h-1.46v2.72h1.46c.54,0,.95-.12,1.22-.35.27-.23.41-.57.41-1s-.14-.77-.41-1.01"/>
    <path class="st0" d="M124.99,99.4h-3.93l-.73,1.8h-2.68l4.1-9.29h2.59l4.11,9.29h-2.73l-.73-1.8ZM124.22,97.46l-1.19-2.97-1.19,2.97h2.39Z"/>
    <path class="st1" d="M56.06,80.1h0c.61-.17,1.26-.25,1.89-.25,1.83,0,3.59.7,4.93,1.93h-4.21c-1.83,0-3.58-.33-5.21-.93.1-.03.21-.07.31-.1.78-.25,1.51-.48,2.28-.65"/>
    <path class="st1" d="M90.21,80.1h0c.77.17,1.5.4,2.28.65.11.03.21.07.31.1-1.62.6-3.37.93-5.2.93h-4.21c1.34-1.23,3.1-1.93,4.92-1.93.64,0,1.28.08,1.89.25"/>
    <path class="st1" d="M39.3,46.53h0c.63-1.29,1.66-2.25,2.89-2.78-1.67-.06-3.3-.71-4.57-1.89.15-.13.31-.26.47-.39,1.72-1.3,3.84-1.69,5.79-1.26-1.8-1.09-3.15-2.89-3.61-5.03.22-.03.45-.05.68-.06,1.83-.08,3.54.47,4.92,1.45-.91-1.74-1.08-3.81-.38-5.72.18.08.36.18.54.28.78.45,1.45,1.03,1.98,1.7-.09-1.45.3-2.92,1.16-4.17.15.12.29.25.43.38.57.55,1.01,1.18,1.33,1.86.25-1.37.95-2.65,2.06-3.58.1.14.19.29.29.44,1.52,2.6.91,5.87-1.32,7.75-.1-.14-.2-.29-.29-.44-.06-.1-.11-.2-.17-.31-.14.98-.51,1.94-1.1,2.78-.15-.12-.29-.24-.43-.38-.16-.16-.31-.32-.45-.49.09,1-.05,2.02-.41,3-.18-.09-.36-.18-.54-.29-.14-.08-.27-.16-.4-.25.37.66.65,1.38.82,2.15-.22.03-.45.05-.67.06-.76.04-1.5-.04-2.2-.21.37.23.72.5,1.04.81-.15.13-.31.26-.47.39-.54.41-1.12.73-1.73.96.37.03.74.1,1.1.2-.06.15-.12.31-.2.45-1.23,2.56-4.11,3.8-6.75,3.04.05-.15.12-.3.19-.46"/>
    <path class="st1" d="M109.06,46.01c-.03-.32-1.63-.71-2.81-.73-.17,0-.33,0-.49.01.39-.36.71-.78.49-.95-.28-.22-1.34.05-1.85.45-.17.13-.3.28-.4.42.07-.23.12-.47.13-.65.04-.24-.12-.72-.32-1.21.1.09.23.19.36.27.62.37,1.82.5,2.08.19.19-.23-.17-.62-.61-.96.12,0,.25,0,.38-.02,1.26-.11,2.95-.79,2.97-1.18.02-.38-1.65-.66-2.91-.55-.18.02-.36.04-.53.07.48-.49.89-1.03.68-1.21-.27-.23-1.46.22-2.08.76-.18.16-.33.32-.44.48.23-.68.33-1.3.03-1.23-.56.13-1.12.62-1.57,1.14.24-.46.44-.89.42-1.1,0-.19-.3-.4-.71-.59.75-.03,1.54-.21,2.12-.69.21-.18-.01-.46-.42-.73,0,0,.02,0,.03,0,.96-.18,2.31-1.08,2.32-1.59,0-.37-.7-.44-1.45-.37.12-.11.25-.22.37-.34,1.21-1.17,2.37-3.24,2.07-3.62-.3-.38-2.27.78-3.48,1.96-.18.17-.34.34-.49.52.08-.86.04-1.71-.32-1.71-.48,0-1.33,1.45-1.5,2.47,0,.02,0,.04-.01.06-.13-.36-.27-.65-.4-.81-.14-.22-.69-.35-1.29-.41.16-.06.33-.15.5-.26.74-.49,1.54-1.76,1.37-2.23-.13-.34-.75-.16-1.36.15.07-.14.13-.28.19-.43.59-1.48.8-3.74.41-3.98-.39-.24-1.62,1.47-2.2,2.95-.06.15-.11.29-.15.43-.24-.72-.56-1.34-.83-1.23-.4.16-.58,1.76-.35,2.75.03.17.08.33.14.48-.43-.51-.86-.92-1.08-.94h-.04s-.01,0-.01,0c-.14.03-.38.25-.64.51.04-.09.08-.18.12-.28.26-.72.27-1.92-.01-2.1-.2-.13-.49.34-.74.87,0-.12-.02-.24-.05-.36-.19-1.21-.88-2.67-1.2-2.58-.31.09-.41,1.8-.22,3.01.03.18.06.34.1.5-.44-.33-.91-.58-1.05-.33-.17.33.3,1.37.79,1.83.14.13.28.22.42.29-.57-.05-1.08.02-1,.31.32,1.14,2.14,2.15,2.41,2.06.18-.06.73-1.13,1.02-2.21.15.75.47,1.54.78,2.14-.52-.6-1.06-1.05-1.16-.66-.38,1.47.8,3.83,1.1,3.99.15.08.76,0,1.41-.26-.32,1.13-.42,2.25-.25,2.4.16.15,1.45.27,2.69.07-.62.73-1.03,1.58-1.03,1.74,0,.29,1.38,2.15,2.67,2.11.29,0,.09-.72-.2-1.38.3.34.69.69,1.11.93-.81.49-1.4,1.4-1.37,1.61.04.27,1.44,1.7,2.79,1.8.31.03.14-.45-.16-.96.12.11.28.23.46.33.62.37,1.77.6,1.98.36.15-.17-.23-.54-.7-.87.12.01.24.02.36.02,1.17.03,2.67-.39,2.64-.71M99.66,36.75c-.27-.21-.93-.31-1.54-.31.5-.09,1.16-.31,1.7-.69-.08.32-.13.66-.17.99"/>
    <path class="st1" d="M102.16,49.1h0c.88-.55,2.26-.95,2.44-.65.19.31-.68,1.45-1.56,2-.09.06-.18.11-.27.15.51.1.99.27.97.51-.03.33-.98.68-1.64.62-.17-.01-.33-.04-.47-.09.46.36.8.74.59.85-.47.24-1.16.15-1.76-.04,0,0,0,0,0,0,.34.1.65.26.83.5.14.17-.26.35-.73.48.61.03,1.34.18,1.66.58.15.18-.34.4-.9.55.16,0,.32.04.48.09.58.17,1.28.79,1.19,1.09-.07.23-.59.2-1.09.09.08.1.15.21.22.33.47.82.79,2.12.5,2.28-.29.17-1.31-.68-1.77-1.51-.04-.08-.09-.17-.13-.25-.11.48-.28.9-.5.88-.3-.04-.58-.93-.5-1.54.02-.16.05-.3.1-.43-.35.41-.7.71-.79.51-.23-.5-.09-1.19.12-1.74-.3.38-.61.65-.71.45-.24-.49-.14-1.15.03-1.67-.47-.06-.83-.16-.88-.23-.05-.07,0-.36.15-.73-.6-.17-1.2-.49-1.56-.86-.14-.14.29-.29.78-.36,0,0,0,0,0,0-.56-.78-1.01-2.04-.74-2.24.27-.19,1.37.56,1.93,1.34.02.02.03.04.05.07.2-.57.51-1.04.64-.81.18.29.3.65.39,1,.09-.49.28-.97.59-1.24.19-.17.45.35.64.95,0-.16.02-.34.07-.53.17-.65.8-1.44,1.13-1.36.25.07.24.64.15,1.19.11-.09.22-.17.35-.25"/>
    <path class="st1" d="M48.18,54.81h0c-1.61,2.34-4.64,3.12-7.14,1.98.08-.14.17-.28.26-.42,1.19-1.72,3.14-2.6,5.08-2.49-2.2-.62-3.9-2.46-4.31-4.74.17-.02.35-.03.52-.03,2.33-.01,4.37,1.28,5.4,3.19-.44-1.49-.03-3.13,1.09-4.24.08.09.15.19.22.29,1.17,1.67.96,3.86-.38,5.3,0,.01-.01.01-.02.03-.23.28-.47.72-.47.72-.08.14-.17.28-.26.42"/>
    <path class="st1" d="M46.53,74.93h0c-.09.06-.19.14-.29.22-1.6-2.39-2.53-5.26-2.53-8.34s.94-5.98,2.56-8.37c-1.74,3.94-1.45,8.72.88,13.75.05.11.09.19.11.24.1.25.54,1.56-.72,2.51"/>
    <path class="st1" d="M57.17,66.96h0c-.24-.61-.23-1.2.01-1.78.95,2.02,1.99,3.18,3.01,4.17-.34-.09-.56-.18-.7-.24l-.14-.05c-.96-.35-1.84-1.19-2.19-2.1"/>
    <path class="st1" d="M54.6,44.15c-.23.43-.51.84-.81,1.22.59,1.2,1.31,3.16.87,5.02-.28,1.13-.66,2.03-1.01,2.82-.44,1.01-.82,1.9-.83,2.97.01.2.15,2.21,2.15,2.21h.84c-.31-3.15,1.13-4.97,1.25-7.58.11-2.39-1.48-5.36-2.46-6.66"/>
    <path class="st1" d="M86.81,69.11h0c-.14.06-.36.15-.7.24,1.03-.99,2.06-2.15,3.02-4.17.24.57.25,1.17.01,1.78-.35.91-1.23,1.75-2.19,2.1l-.14.05Z"/>
    <path class="st1" d="M65.98,80.3l-1.11-.97s-.04-.04-.08-.08l-2.61-2.36c.24-.12.51-.19.81-.19.99,0,1.8.81,1.8,1.8,0,.18-.02.34-.07.49,0,0,2.33,1.09,4.26-.72h0c.07-.39.11-.81.11-1.22,0-3.77-3.05-6.75-6.82-6.82-2.04-.03-2.88-.49-3.12-.57-1.78-.64-3.56-2.84-2.42-4.99,1.11-2.09,1.46-4.11,1.42-5.64h-3.16c-2.69,0-2.78-2.85-2.78-2.85,0-2.09,1.23-3.4,1.84-5.94.46-1.91-.51-4.04-1.01-4.96,1.25-1.41,2.01-3.27,2.01-5.3,0-1.73-.55-3.34-1.49-4.65l-3.54,4.81c-.38.61-.28,1.34-.05,1.98-.77.03-1.53.2-1.99.8l-3.41,4.64c.78.26,1.62.4,2.5.4,1.76,0,3.39-.57,4.71-1.53.4,1.8.44,4.33-3.66,10.06-4.91,6.86-.55,14.94-.25,15.69.3.74.45,2.21-.93,3.25-1.37,1.05-5.19,3.41-5.19,3.41,0,0,3.32,2.98,8.24,2.24,2.22-.33,4.06-1.18,5.94-1.59.65-.18,1.34-.27,2.06-.27,2.31,0,4.39.99,5.83,2.57h8c.6,0,1.07-.48,1.07-1.06,0-.15-.03-.29-.09-.42h-6.78Z"/>
    <path class="st1" d="M66.17,79.85s-.1-.09-.13-.11c1.96.1,3.22-1.12,3.36-1.27.88.39,2.81,1.27,2.81,1.27l.04.02s.1.05.14.08h-6.23Z"/>
    <path class="st1" d="M77.27,73.74h0c-.24.47-.42.97-.55,1.49-1.16.21-2.36.32-3.58.32s-2.43-.11-3.58-.32c-.13-.51-.31-1.01-.54-1.48,1.32.3,2.69.46,4.1.46s2.83-.16,4.16-.47"/>
    <path class="st1" d="M91.67,44.15c-.97,1.31-2.57,4.27-2.46,6.66.12,2.61,1.56,4.43,1.25,7.58h.84c2,0,2.14-2.01,2.15-2.21,0-1.07-.39-1.95-.82-2.97-.34-.79-.73-1.69-1.01-2.82-.45-1.86.27-3.82.87-5.02-.31-.38-.58-.79-.82-1.22"/>
    <path class="st1" d="M99.13,72.18c-.05.11-.09.19-.11.24-.1.25-.54,1.56.72,2.51.08.06.18.14.29.22,1.6-2.39,2.54-5.26,2.54-8.34s-.94-5.98-2.56-8.37c1.74,3.94,1.45,8.72-.88,13.75"/>
    <path class="st1" d="M98.43,72.18c.3-.75,4.66-8.83-.25-15.69-4.1-5.73-4.07-8.26-3.66-10.06,1.32.96,2.95,1.53,4.7,1.53.87,0,1.72-.15,2.5-.4l-3.41-4.64c-.46-.61-1.23-.77-2-.8.23-.63.33-1.37-.05-1.97l-3.54-4.81c-.94,1.31-1.49,2.91-1.49,4.65,0,2.03.76,3.89,2.01,5.3-.5.92-1.47,3.04-1.01,4.96.61,2.54,1.83,3.85,1.84,5.94,0,0-.1,2.85-2.78,2.85h-3.17c-.04,1.53.31,3.55,1.42,5.64,1.14,2.14-.65,4.34-2.43,4.99-.24.08-1.08.54-3.12.57-3.77.07-6.83,3.05-6.83,6.82,0,.42.04.83.11,1.22,0,0,0,0,0,0,1.92,1.81,4.26.72,4.26.72-.04-.15-.07-.32-.07-.49,0-.99.81-1.8,1.8-1.8.29,0,.56.07.81.19l-2.61,2.36s-.09.08-.09.08l-1.11.97h-6.78c-.06.13-.08.26-.08.42,0,.58.47,1.06,1.07,1.06h8c1.44-1.58,3.52-2.57,5.82-2.57.72,0,1.4.09,2.06.27,1.87.42,3.72,1.26,5.93,1.59,4.93.75,8.24-2.24,8.24-2.24,0,0-3.82-2.36-5.2-3.41-1.37-1.04-1.22-2.51-.93-3.25"/>
    <path class="st1" d="M74.02,79.76l.04-.02s1.93-.88,2.82-1.27c.14.14,1.4,1.36,3.36,1.27-.03.02-.14.11-.14.11h-6.22s.09-.06.14-.08"/>
    <path class="st1" d="M73.99,46.37c-.5-.14-1.13-.23-2.19-.14-1.13.09-1.45.77-1.48,1.04-.03.26-.12,1.28.95,1.1,1.15-.2,1.95.1,1.95.1,0,0,.22.08.27.15.12.13.04.31-.13.24,0,0-.1-.05-.24-.11-.33-.14-1.19-.27-1.94-.08-.76.18-2.1,1.13-2.48,2.77-.38,1.65,1.08,1.23,1.92,1.41,1.79.39,2.78,2.39,2.96,2.68.19.28,1.02,1.46,2,.96.98-.5.81-1.4.66-2.35-.16-.95.15-2.51.31-3.37.79-3.62-2.37-4.34-2.56-4.4M73.11,52.19c-.7,0-1.28-.58-1.28-1.28s.57-1.28,1.28-1.28,1.28.58,1.28,1.28-.57,1.28-1.28,1.28"/>
    <path class="st1" d="M83.02,62.6l-.9-1.18s.02-.02.03-.03c.06-.06.12-.11.19-.17,0,0,0,0,0,0,.21-.19.4-.39.6-.58h0c.06-.06.11-.11.16-.17.02-.02.03-.04.05-.05.05-.05.1-.11.15-.16.02-.02.04-.05.06-.07.04-.05.09-.1.13-.15.02-.02.04-.04.06-.07.05-.05.09-.1.13-.16.02-.02.04-.05.05-.07.05-.05.09-.11.14-.17,0-.01.01-.02.02-.03.1-.13.21-.27.3-.41,0,0,.01-.01.02-.02.04-.05.08-.11.11-.16.02-.03.04-.06.07-.09.03-.05.07-.1.1-.15.03-.03.05-.07.07-.1.03-.05.07-.1.1-.15.03-.04.05-.07.07-.11.03-.05.06-.1.09-.15.02-.04.05-.08.07-.12.03-.05.06-.1.08-.15.03-.04.05-.08.07-.12.03-.05.05-.1.08-.14.04-.07.08-.14.11-.21.03-.06.06-.12.09-.19.03-.04.05-.09.07-.14.02-.05.04-.09.07-.14.02-.05.04-.1.07-.15.01-.05.04-.09.06-.14.02-.05.04-.1.06-.15.02-.04.04-.09.06-.14.02-.05.04-.1.06-.16.01-.04.04-.09.05-.13.02-.06.04-.11.07-.16.01-.04.03-.08.04-.12.03-.08.05-.15.08-.22.01-.04.03-.07.04-.11.03-.08.05-.17.08-.25.01-.04.02-.07.03-.12.02-.06.04-.12.06-.19.01-.04.02-.09.04-.13.02-.06.03-.12.05-.18.01-.05.02-.09.03-.13.01-.06.03-.12.05-.18,0-.04.02-.08.03-.13.01-.07.03-.13.04-.19,0-.04.02-.08.03-.12.01-.07.03-.15.04-.23,0-.03.01-.06.01-.09.02-.1.04-.21.05-.31,0-.03,0-.06.01-.08.01-.08.02-.16.03-.24,0-.04,0-.08.01-.12.01-.07.02-.13.03-.21,0-.04,0-.08,0-.13,0-.07.02-.13.02-.2,0-.04,0-.09,0-.13,0-.07.01-.14.01-.21,0-.04.01-.08.01-.12,0-.08,0-.15,0-.22,0-.03,0-.07,0-.11,0-.11,0-.22,0-.33s0-.22,0-.33c0-.04,0-.07,0-.11,0-.07,0-.15,0-.22,0-.04,0-.09-.01-.12,0-.07,0-.14-.01-.2,0-.04,0-.09,0-.13,0-.07-.01-.13-.02-.2,0-.04,0-.09,0-.13,0-.07-.01-.14-.03-.21,0-.04,0-.08-.01-.12-.01-.08-.02-.16-.03-.24,0-.03,0-.06-.01-.08-.01-.11-.03-.21-.05-.31,0-.03,0-.06-.01-.09-.01-.07-.03-.15-.04-.23-.01-.04-.02-.08-.03-.12-.01-.06-.03-.13-.04-.19-.01-.04-.02-.09-.03-.13-.01-.06-.03-.12-.05-.18,0-.04-.02-.08-.03-.13-.02-.06-.03-.12-.05-.18-.01-.04-.03-.08-.04-.13-.02-.06-.04-.12-.06-.19-.01-.04-.02-.08-.03-.11-.03-.09-.06-.17-.08-.26-.01-.04-.03-.07-.04-.1-.03-.08-.05-.15-.08-.23-.01-.04-.03-.08-.04-.12-.02-.06-.04-.11-.07-.16-.01-.05-.04-.09-.05-.14-.02-.05-.04-.1-.06-.16-.02-.04-.04-.09-.06-.14-.02-.04-.04-.1-.06-.15-.02-.04-.04-.09-.06-.14-.02-.05-.05-.1-.07-.15-.02-.04-.04-.09-.06-.14-.03-.05-.05-.09-.08-.15-.02-.05-.05-.09-.07-.14-.04-.08-.09-.16-.14-.24-.03-.05-.05-.1-.07-.14-.02-.04-.05-.08-.08-.12-.03-.05-.05-.09-.08-.14-.02-.04-.05-.08-.07-.12-.03-.05-.06-.1-.09-.15-.03-.04-.04-.07-.07-.12-.03-.05-.06-.09-.09-.14-.02-.04-.05-.07-.07-.11-.04-.05-.07-.1-.1-.15l-.07-.09c-.04-.05-.07-.1-.11-.16,0,0,0-.01-.02-.03-.1-.14-.2-.27-.3-.4-.01-.01-.02-.02-.03-.04-.05-.06-.09-.11-.14-.17-.01-.02-.04-.04-.05-.07-.04-.05-.09-.11-.13-.16-.02-.02-.04-.04-.06-.07-.05-.05-.09-.11-.13-.15-.02-.02-.04-.05-.06-.07-.05-.05-.09-.1-.15-.15-.01-.02-.03-.04-.05-.06-.05-.05-.1-.11-.16-.17h0c-.19-.2-.39-.39-.6-.58,0,0,0,0,0,0-.06-.06-.12-.11-.18-.16-.01-.01-.03-.02-.04-.04-.06-.05-.12-.1-.18-.16-.01-.01-.03-.02-.04-.04-.06-.05-.13-.1-.19-.15,0,0,0,0,0,0l1.44-1.9.66,1.43.61-2.49.61-2.48-2.23,1.25-2.23,1.25,1.55.26-1.45,1.91c-.11-.07-.22-.15-.34-.22,0,0-.01,0-.01-.01-.08-.05-.16-.1-.23-.14,0,0-.01,0-.02,0-.57-.34-1.16-.63-1.78-.89h0c-.71-.29-1.45-.52-2.22-.69-.74-.16-1.51-.27-2.3-.3v-2.13l1.39.73-1.02-2.35-1.02-2.34-2.04,4.69,1.39-.73v2.14c-.78.04-1.54.14-2.28.3-.76.17-1.5.4-2.22.69h0c-.62.25-1.21.55-1.79.89,0,0,0,0-.01,0-.07.05-.15.1-.23.14,0,0-.01,0-.02.01-.07.05-.15.09-.22.15l-1.39-1.84,1.55-.26-2.23-1.25-2.23-1.25.61,2.48.6,2.49.66-1.43,1.37,1.81s-.05.04-.08.07c0,0-.02.02-.03.02-.06.05-.13.1-.19.15-.01.01-.03.02-.04.03-.06.05-.12.1-.18.16-.01.01-.02.02-.03.04-.06.05-.13.11-.19.16,0,0,0,0,0,0-.21.19-.41.38-.6.59h0c-.05.06-.11.12-.16.17-.01.02-.03.03-.05.05-.05.05-.1.1-.15.16-.02.02-.04.05-.06.07-.04.05-.09.1-.13.15-.02.03-.04.05-.06.07-.05.05-.09.11-.13.16-.02.02-.04.05-.06.07-.04.06-.09.11-.13.17-.01,0-.02.02-.02.03-.11.14-.2.27-.31.41,0,0,0,.01-.01.02-.04.05-.08.11-.11.16-.02.03-.04.06-.06.09-.03.05-.07.1-.1.15-.03.04-.05.07-.07.11-.03.04-.06.1-.09.15-.02.04-.05.07-.07.11-.03.05-.06.1-.09.15-.02.04-.05.08-.07.12-.03.05-.06.1-.08.14-.02.04-.05.08-.07.12-.02.05-.05.1-.08.14-.05.08-.09.16-.13.24-.03.05-.05.09-.08.14-.02.05-.05.1-.07.15-.02.04-.04.09-.06.14-.03.05-.05.1-.07.15-.02.04-.04.09-.06.14-.02.05-.04.1-.07.15-.02.05-.03.1-.06.14-.02.05-.05.11-.06.16-.03.04-.04.09-.06.14-.02.05-.04.11-.06.16-.02.04-.03.08-.05.12-.03.07-.05.15-.08.22-.01.04-.03.07-.03.1-.03.09-.06.17-.09.26,0,.03-.02.07-.03.11-.02.06-.04.13-.05.19-.01.04-.02.08-.04.12-.02.06-.03.12-.05.18-.01.04-.03.09-.03.13-.02.06-.03.12-.04.18-.01.04-.03.09-.03.13-.01.06-.03.12-.04.19,0,.04-.02.08-.02.12-.02.08-.03.16-.04.23,0,.03-.01.06-.02.09-.02.11-.03.21-.05.32,0,.03,0,.05-.02.08,0,.08-.02.16-.03.24,0,.04,0,.08-.02.12,0,.07-.02.14-.03.21,0,.04,0,.09-.01.13,0,.07-.01.13-.02.2,0,.04,0,.09-.01.13,0,.07-.01.13-.01.2,0,.04,0,.09,0,.13,0,.07,0,.15,0,.22v.11c0,.11,0,.22,0,.33s0,.22,0,.33v.11c0,.07,0,.15,0,.22,0,.04,0,.08,0,.13,0,.06,0,.13.01.2,0,.04.01.09.01.13,0,.07,0,.13.02.2,0,.04,0,.08.01.13,0,.07.02.14.03.21,0,.04,0,.08.02.12,0,.08.02.16.03.24,0,.02.01.05.02.08.02.1.03.21.05.31,0,.03.01.06.02.09.01.07.02.15.04.23,0,.04.02.08.02.12.01.06.03.13.04.19,0,.04.02.08.03.13.01.06.03.12.04.18,0,.04.02.08.03.13.02.06.03.12.05.18.01.04.02.08.04.13.02.06.04.13.05.19.01.04.03.07.03.11.03.08.06.17.09.26,0,.03.02.06.03.1.02.08.05.15.08.23.02.04.03.08.05.12.02.06.04.11.06.17.02.05.03.09.06.13.01.06.04.11.06.16.02.05.03.09.06.14.03.05.05.1.07.15.02.05.04.09.06.14.02.05.05.1.07.15.02.04.04.09.06.13.02.05.05.1.07.15.02.04.05.08.07.13.05.09.09.17.14.26.03.04.06.1.08.14.02.04.05.08.07.13.03.04.06.1.08.14.02.04.05.08.07.12.03.05.06.1.09.15.02.04.05.08.07.12.03.04.07.09.09.14.02.03.04.07.07.11.03.05.07.1.1.15.02.03.04.06.06.09.04.05.07.1.11.16,0,0,.01.02.02.03.1.13.19.27.29.4.01.01.02.03.03.04.04.06.09.11.13.17.02.02.04.05.06.07.04.05.09.11.13.16.03.03.04.05.06.07.05.05.09.11.13.15.02.02.04.05.06.07.05.05.09.11.15.16.01.01.03.03.05.05.05.06.11.11.16.17t0,0c.19.2.39.39.6.58,0,0,0,0,0,0,.06.06.12.11.19.17,0,0,.02.02.03.03.03.03.07.06.1.09l-.82,1.09-1.56-.23-2.53,3.33,2.36.26.9,2.21,2.53-3.33-.66-1.45.81-1.07c.23.15.45.31.68.45,0,0,.01.01.02.01.07.05.15.1.23.14,0,0,.01,0,.01,0,.57.34,1.17.64,1.79.89h0c.71.29,1.45.52,2.22.68.74.16,1.5.27,2.28.31v1.6l-1.39.76v4.18l2.04-1.22,2.05,1.22v-4.18l-1.4-.76v-1.6c.79-.04,1.55-.14,2.3-.31.09-.02.19-.04.28-.06.66-.16,1.31-.37,1.93-.62h0c.62-.25,1.21-.55,1.78-.89h.02c.07-.05.15-.1.23-.15,0,0,0,0,.01-.01.27-.16.53-.34.79-.53l.87,1.15-.66,1.45,2.53,3.33.89-2.21,2.36-.26-2.53-3.33-1.57.23ZM84.76,55.37h-3.78c.29-1.23.47-2.52.49-3.86h4.01c-.04,1.35-.29,2.65-.73,3.86M84.57,46.49c.49,1.19.8,2.49.89,3.83h-4c-.06-1.33-.27-2.62-.61-3.83h3.71ZM79.89,40.83l-.19.25h-1.52c-.53-.67-1.1-1.28-1.72-1.82,1.23.35,2.39.88,3.43,1.56M79.07,45.3h-.94l.6-.8c.12.26.23.53.34.8M73.76,38.92c1,.54,1.92,1.28,2.73,2.16h-2.73v-2.16ZM73.76,42.27h3.69c.22.31.42.63.62.96l-1.57,2.07h-2.74v-3.03ZM72.46,38.92v2.16h-2.72c.81-.88,1.72-1.61,2.72-2.16M72.46,42.27v3.03h-1.37l-2.29-3.03h3.66ZM69.77,39.27c-.61.54-1.19,1.15-1.72,1.82h-.14l-.62-.82c.78-.42,1.61-.75,2.48-1M64.53,42.27h.19l1.47,1.95c-.16.36-.31.71-.44,1.09h-3.52c.61-1.13,1.39-2.15,2.31-3.03M61.66,46.49h3.71c-.33,1.21-.54,2.5-.6,3.83h-4c.09-1.35.4-2.64.89-3.83M61.47,55.37c-.43-1.21-.69-2.51-.72-3.86h4.01c.02,1.33.19,2.63.49,3.86h-3.78ZM65.67,59.59h-1.64c-.83-.89-1.53-1.92-2.07-3.03h3.61c.23.72.51,1.41.83,2.06l-.73.97ZM66,61.3l.4-.53h1.28c.62.88,1.32,1.65,2.09,2.32-1.36-.38-2.64-1-3.77-1.79M66.98,56.56h.99l-.66.87c-.12-.29-.23-.58-.33-.87M72.46,63.44c-1.18-.64-2.25-1.55-3.16-2.66h3.16v2.66ZM72.46,59.59h-4.02c-.18-.27-.34-.56-.5-.85l1.65-2.18h2.86v3.03ZM73.76,63.45v-2.67h3.17c-.91,1.12-1.99,2.03-3.17,2.67M76.46,63.1c.77-.67,1.47-1.45,2.1-2.32h.16l.77,1.02c-.94.56-1.95,1-3.02,1.3M79.62,55.37h-.9l-1.91-2.53c-.05.45-.06.88,0,1.2v.05c.16.93.37,2.2-.95,2.88l1.97,2.59s-.01.01-.01.02h-4.03v-3.01c-.27-.25-.49-.54-.64-.76-.03-.04-.06-.1-.11-.17-.11-.18-.29-.5-.56-.85v.57h-1.97l1.11-1.46c-.32-.25-.69-.44-1.09-.53-.04,0-.08-.01-.12-.02l-1.52,2.01h-2.26c-.32-1.22-.5-2.52-.53-3.86h2.03c.01-.07.03-.14.04-.21.08-.36.2-.68.35-.98h-2.4c.07-1.34.29-2.63.65-3.83h1.15l1.78,2.36c.13-.1.26-.2.39-.29-.41-.46-.35-1.13-.32-1.35.05-.48.53-1.42,1.99-1.54.29-.02.57-.03.83-.03.59,0,1.08.06,1.57.19h.01c.91.25,1.79.76,2.38,1.57l.68-.9h2.25c.36,1.21.58,2.49.65,3.83h-2.93c-.02.18-.05.36-.09.55l-.03.19c-.03.13-.06.28-.08.45h3.16c-.03,1.34-.21,2.64-.53,3.86M79.62,43.33l.8-1.06h1.28c.92.89,1.7,1.91,2.31,3.03h-3.52c-.25-.69-.54-1.35-.86-1.97M81.9,59.59l-1.58-2.09c.12-.31.23-.62.33-.94h3.61c-.54,1.11-1.24,2.14-2.07,3.03h-.29Z"/>
    <path class="st1" d="M57.23,22.66s0,0,0,0l.23.43c.74-.36,1.63-.08,2.04.64h0s1.4,2.55,1.4,2.55l-1.33.74.62,1.16c3.95-1.76,8.31-2.75,12.9-2.75s8.96.98,12.9,2.75l.63-1.17-1.35-.71,1.36-2.59h0s0,0,0,0h0c.4-.76,1.34-1.05,2.11-.66,0,0,0,0,0,0l.41-.75s0,0,0,0l.61-1.12-2.86-1.39-.5,1.17c-.68-.29-1.36-.56-2.06-.81l.42-1.2-6.14-1.57-.21,1.26c-.75-.12-1.52-.21-2.29-.28l.12-1.27h-6.34l.12,1.27c-.75.07-1.51.16-2.25.28l-.2-1.26-6.14,1.56.43,1.21c-.7.25-1.39.51-2.06.81l-.51-1.18-2.89,1.4.8,1.49ZM79.35,21.31h0s0-.01,0-.01c.21-.83,1.05-1.34,1.88-1.13.84.2,1.35,1.04,1.15,1.88h0s0,0,0,0l-.75,3.07-3.03-.74.75-3.07ZM71.54,20.68c0-.86.7-1.55,1.56-1.55s1.55.69,1.56,1.55h0v3.32h-3.12v-3.32ZM64.85,20.15c.83-.22,1.68.27,1.91,1.1h0s0,.01,0,.01l.82,3.1-3.01.8-.83-3.1h0c-.22-.84.27-1.69,1.1-1.91"/>
    <path class="st1" d="M67.41,16.28l-.28-1.71c-6.65,1.69-.05.01-6.61,1.68l.57,1.64c6.33-1.6.01,0,6.32-1.6"/>
    <path class="st1" d="M58.88,18.76l-.69-1.59c-3.1,1.51,0,0-3.1,1.51l.82,1.53c2.97-1.44,0,0,2.97-1.44"/>
    <polygon class="st1" points="76.35 16.01 76.51 14.26 69.7 14.26 69.84 16.01 76.35 16.01"/>
    <path class="st1" d="M85.7,16.27c-6.59-1.68-.01,0-6.59-1.68l-.29,1.73c6.31,1.61,0,0,6.3,1.61l.58-1.65Z"/>
    <path class="st1" d="M91.1,18.67c-3.06-1.49,0,0-3.06-1.49l-.69,1.6c2.94,1.43,0,0,2.93,1.43l.82-1.54Z"/>
    <path class="st1" d="M91.34,29.37h-6c-3.75-1.66-7.89-2.59-12.25-2.59s-8.51.93-12.25,2.59h-5.91v6.99c.56,1.17.84,2.41.8,3.66-.05,1.56-.28,2.39-.79,3.54.36.46.83,1.17,1.28,2.02v-14.86h33.78v14.95c.47-.89.95-1.64,1.33-2.11-.51-1.15-.74-1.99-.79-3.54-.04-1.25.23-2.49.8-3.66v-6.98ZM64.74,29.37c2.65-.79,5.45-1.23,8.36-1.23s5.71.43,8.35,1.23h-16.7Z"/>
  </g>
</svg>