<?xml version="1.0" encoding="UTF-8"?>
<svg id="Camada_1" xmlns="http://www.w3.org/2000/svg" version="1.1" xmlns:xlink="http://www.w3.org/1999/xlink" viewBox="0 0 206.21 102.51">
  <!-- Generator: Adobe Illustrator 30.0.0, SVG Export Plug-In . SVG Version: 2.1.1 Build 123)  -->
  <defs>
    <style>
      .st0 {
        clip-path: url(#clippath-21);
      }

      .st1 {
        fill: url(#Gradiente_sem_nome_21);
      }

      .st2 {
        clip-path: url(#clippath-6);
      }

      .st3 {
        clip-path: url(#clippath-7);
      }

      .st4 {
        clip-path: url(#clippath-17);
      }

      .st5 {
        fill: url(#Gradiente_sem_nome_5);
      }

      .st6 {
        fill: #273759;
      }

      .st7 {
        clip-path: url(#clippath-15);
      }

      .st8 {
        fill: url(#Gradiente_sem_nome_9);
      }

      .st9 {
        clip-path: url(#clippath-18);
      }

      .st10 {
        clip-path: url(#clippath-4);
      }

      .st11 {
        clip-path: url(#clippath-22);
      }

      .st12 {
        clip-path: url(#clippath-23);
      }

      .st13 {
        fill: url(#Gradiente_sem_nome_26);
      }

      .st14 {
        clip-path: url(#clippath-9);
      }

      .st15 {
        clip-path: url(#clippath-10);
      }

      .st16 {
        fill: url(#Gradiente_sem_nome_2);
      }

      .st17 {
        fill: url(#Gradiente_sem_nome_11);
      }

      .st18 {
        clip-path: url(#clippath-25);
      }

      .st19 {
        fill: url(#Gradiente_sem_nome_23);
      }

      .st20 {
        fill: url(#Gradiente_sem_nome_17);
      }

      .st21 {
        clip-path: url(#clippath-11);
      }

      .st22 {
        fill: url(#Gradiente_sem_nome_25);
      }

      .st23 {
        fill: none;
      }

      .st24 {
        fill: url(#Gradiente_sem_nome);
      }

      .st25 {
        fill: url(#Gradiente_sem_nome_19);
      }

      .st26 {
        fill: url(#Gradiente_sem_nome_13);
      }

      .st27 {
        clip-path: url(#clippath-1);
      }

      .st28 {
        fill: url(#Gradiente_sem_nome_12);
      }

      .st29 {
        fill: url(#Gradiente_sem_nome_15);
      }

      .st30 {
        clip-path: url(#clippath-5);
      }

      .st31 {
        clip-path: url(#clippath-20);
      }

      .st32 {
        clip-path: url(#clippath-8);
      }

      .st33 {
        fill: url(#Gradiente_sem_nome_22);
      }

      .st34 {
        clip-path: url(#clippath-3);
      }

      .st35 {
        clip-path: url(#clippath-26);
      }

      .st36 {
        fill: url(#Gradiente_sem_nome_24);
      }

      .st37 {
        clip-path: url(#clippath-12);
      }

      .st38 {
        clip-path: url(#clippath-14);
      }

      .st39 {
        fill: url(#Gradiente_sem_nome_7);
      }

      .st40 {
        clip-path: url(#clippath-19);
      }

      .st41 {
        fill: url(#Gradiente_sem_nome_4);
      }

      .st42 {
        fill: url(#Gradiente_sem_nome_16);
      }

      .st43 {
        fill: url(#Gradiente_sem_nome_6);
      }

      .st44 {
        fill: url(#Gradiente_sem_nome_10);
      }

      .st45 {
        fill: url(#Gradiente_sem_nome_20);
      }

      .st46 {
        clip-path: url(#clippath-16);
      }

      .st47 {
        clip-path: url(#clippath-2);
      }

      .st48 {
        fill: url(#Gradiente_sem_nome_3);
      }

      .st49 {
        clip-path: url(#clippath-13);
      }

      .st50 {
        fill: url(#Gradiente_sem_nome_8);
      }

      .st51 {
        fill: url(#Gradiente_sem_nome_18);
      }

      .st52 {
        clip-path: url(#clippath-24);
      }

      .st53 {
        clip-path: url(#clippath);
      }

      .st54 {
        fill: url(#Gradiente_sem_nome_14);
      }
    </style>
    <clipPath id="clippath">
      <rect class="st23" y="0" width="206.21" height="102.51"/>
    </clipPath>
    <clipPath id="clippath-1">
      <path class="st23" d="M25.48,87.18c-.63.14-1.24.33-1.88.54-.09.03-.17.06-.26.08,1.34.49,2.79.77,4.3.77h3.47c-1.1-1.02-2.56-1.59-4.07-1.59-.53,0-1.05.07-1.56.2"/>
    </clipPath>
    <linearGradient id="Gradiente_sem_nome" data-name="Gradiente sem nome" x1="0" y1="102.51" x2="1" y2="102.51" gradientTransform="translate(23.34 884.07) scale(7.77 -7.77)" gradientUnits="userSpaceOnUse">
      <stop offset="0" stop-color="#41648c"/>
      <stop offset=".22" stop-color="#527da9"/>
      <stop offset=".58" stop-color="#6aa2d2"/>
      <stop offset=".76" stop-color="#74b1e3"/>
      <stop offset="1" stop-color="#74b1e3"/>
    </linearGradient>
    <clipPath id="clippath-2">
      <path class="st23" d="M48.04,88.57h3.47c1.51,0,2.96-.28,4.29-.77-.08-.03-.17-.06-.26-.08-.64-.2-1.25-.4-1.88-.54-.51-.14-1.04-.2-1.56-.2-1.5,0-2.96.58-4.06,1.59"/>
    </clipPath>
    <linearGradient id="Gradiente_sem_nome_2" data-name="Gradiente sem nome 2" x1="0" y1="102.51" x2="1" y2="102.51" gradientTransform="translate(48.04 883.79) scale(7.77 -7.77)" gradientUnits="userSpaceOnUse">
      <stop offset="0" stop-color="#41648c"/>
      <stop offset=".22" stop-color="#527da9"/>
      <stop offset=".58" stop-color="#6aa2d2"/>
      <stop offset=".76" stop-color="#74b1e3"/>
      <stop offset="1" stop-color="#74b1e3"/>
    </linearGradient>
    <clipPath id="clippath-3">
      <path class="st23" d="M21.24,46.58c-.27-.56-.63-1.08-1.1-1.53-.12-.11-.23-.22-.36-.32-.71,1.03-1.03,2.25-.95,3.44-.44-.55-.99-1.02-1.63-1.4-.14-.08-.29-.16-.44-.23-.58,1.58-.44,3.29.31,4.72-1.14-.81-2.55-1.27-4.06-1.2-.19,0-.37.03-.56.05.39,1.77,1.49,3.25,2.98,4.15-1.62-.36-3.36-.03-4.78,1.04-.13.1-.26.21-.39.32,1.05.98,2.4,1.51,3.77,1.56-1.01.44-1.87,1.23-2.39,2.29-.06.13-.11.25-.16.38,2.18.62,4.56-.4,5.57-2.51.06-.12.12-.25.16-.37-.3-.09-.6-.14-.91-.17.5-.19.98-.45,1.43-.79.13-.1.26-.21.39-.32-.27-.25-.56-.47-.86-.67.58.14,1.19.21,1.82.18.19,0,.38-.03.56-.05-.14-.63-.37-1.23-.68-1.77.11.07.22.14.33.21.15.09.3.16.45.24.3-.81.41-1.65.34-2.47.12.14.24.28.38.41.11.12.23.22.35.32.48-.7.79-1.49.9-2.3.05.09.09.17.14.25.07.12.15.25.24.36,1.84-1.56,2.34-4.25,1.09-6.4-.08-.12-.15-.25-.24-.36-.92.77-1.5,1.83-1.7,2.96"/>
    </clipPath>
    <linearGradient id="Gradiente_sem_nome_3" data-name="Gradiente sem nome 3" x1="0" y1="102.49" x2="1" y2="102.49" gradientTransform="translate(10.26 1447.06) scale(13.61 -13.61)" gradientUnits="userSpaceOnUse">
      <stop offset="0" stop-color="#41648c"/>
      <stop offset=".22" stop-color="#527da9"/>
      <stop offset=".58" stop-color="#6aa2d2"/>
      <stop offset=".76" stop-color="#74b1e3"/>
      <stop offset="1" stop-color="#74b1e3"/>
    </linearGradient>
    <clipPath id="clippath-4">
      <path class="st23" d="M61.6,50.58c-.07.26-.11.54-.14.82-.23-.17-.77-.26-1.27-.25.42-.08.95-.25,1.41-.57M60.34,46.1c-.05.12-.09.24-.13.36-.2-.6-.46-1.11-.69-1.01-.33.13-.48,1.45-.29,2.27.03.14.07.28.11.4-.36-.42-.71-.76-.89-.78h-.03s0,0-.01,0c-.11.03-.31.21-.53.42.04-.07.07-.15.09-.23.21-.59.22-1.59,0-1.73-.16-.1-.41.28-.61.72,0-.1-.02-.2-.04-.3-.15-1-.72-2.2-.99-2.13-.26.07-.34,1.49-.18,2.48.03.15.05.28.09.41-.36-.27-.75-.48-.86-.27-.14.27.25,1.13.65,1.51.12.1.23.18.35.24-.47-.04-.89.01-.83.25.26.94,1.77,1.78,1.99,1.7.15-.05.6-.93.84-1.82.13.62.39,1.27.64,1.76-.43-.5-.88-.86-.96-.55-.32,1.22.66,3.16.91,3.29.13.07.63,0,1.16-.21-.26.93-.35,1.85-.21,1.98.13.12,1.19.23,2.22.06-.51.61-.85,1.31-.85,1.44,0,.24,1.14,1.77,2.2,1.74.24,0,.08-.59-.16-1.14.25.28.57.57.92.77-.67.4-1.16,1.16-1.13,1.33.03.22,1.18,1.41,2.3,1.49.25.02.12-.37-.13-.79.1.09.23.19.38.27.52.31,1.46.49,1.64.3.13-.14-.19-.44-.58-.72.1.01.19.02.29.02.97.02,2.2-.32,2.18-.59-.02-.26-1.35-.58-2.32-.6-.14,0-.28,0-.4,0,.32-.3.58-.64.4-.79-.23-.18-1.11.04-1.53.37-.14.11-.25.23-.33.34.06-.19.1-.39.11-.54.03-.2-.1-.6-.27-1,.08.08.19.15.3.22.51.31,1.5.41,1.72.16.16-.19-.14-.51-.51-.79.1,0,.2,0,.31-.01,1.04-.09,2.43-.65,2.45-.97.02-.32-1.36-.54-2.4-.45-.15.01-.3.03-.44.06.4-.4.74-.85.56-1-.22-.19-1.21.18-1.71.63-.15.13-.27.26-.37.4.19-.56.28-1.07.02-1.01-.46.1-.93.51-1.29.94.2-.38.36-.74.35-.91,0-.16-.24-.33-.58-.49.62-.02,1.27-.17,1.75-.57.17-.15-.01-.38-.35-.6,0,0,.01,0,.02,0,.79-.15,1.9-.89,1.92-1.31,0-.31-.58-.36-1.2-.31.1-.09.21-.18.31-.28,1-.97,1.96-2.67,1.71-2.99-.25-.31-1.87.65-2.87,1.62-.14.14-.28.28-.4.43.07-.71.04-1.42-.27-1.41-.4,0-1.1,1.19-1.24,2.04,0,.02,0,.03,0,.05-.11-.29-.22-.54-.33-.66-.12-.18-.57-.29-1.07-.34.13-.05.27-.12.41-.22.61-.4,1.27-1.45,1.13-1.84-.11-.28-.62-.13-1.12.12.05-.11.11-.23.15-.36.49-1.22.66-3.09.33-3.29-.02-.01-.04-.02-.07-.02-.38,0-1.3,1.31-1.75,2.46"/>
    </clipPath>
    <linearGradient id="Gradiente_sem_nome_4" data-name="Gradiente sem nome 4" x1="0" y1="102.51" x2="1" y2="102.51" gradientTransform="translate(55.35 1473.18) scale(13.86 -13.86)" gradientUnits="userSpaceOnUse">
      <stop offset="0" stop-color="#41648c"/>
      <stop offset=".22" stop-color="#527da9"/>
      <stop offset=".58" stop-color="#6aa2d2"/>
      <stop offset=".76" stop-color="#74b1e3"/>
      <stop offset="1" stop-color="#74b1e3"/>
    </linearGradient>
    <clipPath id="clippath-5">
      <path class="st23" d="M62.18,61.94c-.04.15-.06.3-.06.43-.16-.5-.37-.93-.53-.79-.25.22-.41.62-.48,1.02-.07-.29-.17-.58-.32-.82-.11-.19-.37.2-.53.67-.01-.02-.03-.04-.04-.06-.46-.65-1.37-1.26-1.59-1.1-.23.16.15,1.2.61,1.85,0,0,0,0,0,0-.41.06-.76.18-.65.29.29.3.79.57,1.28.71-.11.31-.17.55-.12.61.04.06.34.14.73.19-.14.43-.22.98-.03,1.38.08.16.34-.06.58-.38-.17.45-.29,1.03-.1,1.44.08.16.37-.08.65-.42-.04.1-.06.23-.08.35-.06.5.17,1.24.42,1.27.18.02.33-.33.42-.72.03.07.07.14.11.21.39.68,1.23,1.39,1.46,1.25.24-.13-.03-1.2-.42-1.88-.06-.1-.12-.19-.18-.27.42.09.84.11.9-.08.07-.24-.5-.76-.99-.9-.14-.04-.27-.07-.4-.07.46-.13.86-.31.74-.46-.27-.33-.87-.46-1.37-.48.39-.1.72-.25.6-.4-.15-.19-.41-.33-.69-.41,0,0,0,0,0,0,.5.15,1.07.23,1.45.03.17-.09-.11-.4-.49-.7.12.04.25.06.39.07.54.05,1.33-.23,1.35-.51.01-.2-.38-.34-.8-.42.07-.04.15-.08.22-.13.72-.45,1.44-1.4,1.29-1.65-.15-.25-1.29.08-2.02.53-.1.06-.2.13-.29.2.08-.45.08-.92-.12-.98-.01,0-.03,0-.04,0-.28,0-.76.62-.89,1.12"/>
    </clipPath>
    <linearGradient id="Gradiente_sem_nome_5" data-name="Gradiente sem nome 5" x1="0" y1="102.5" x2="1" y2="102.5" gradientTransform="translate(58.56 782.26) scale(7 -7)" gradientUnits="userSpaceOnUse">
      <stop offset="0" stop-color="#41648c"/>
      <stop offset=".22" stop-color="#527da9"/>
      <stop offset=".58" stop-color="#6aa2d2"/>
      <stop offset=".76" stop-color="#74b1e3"/>
      <stop offset="1" stop-color="#74b1e3"/>
    </linearGradient>
    <clipPath id="clippath-6">
      <path class="st23" d="M18.82,64.24c-.85-1.58-2.54-2.65-4.46-2.64-.14,0-.29.01-.43.03.34,1.88,1.74,3.4,3.56,3.91-1.61-.09-3.22.64-4.19,2.06-.07.11-.15.23-.22.34,2.06.95,4.57.3,5.89-1.63.07-.11.15-.23.21-.34,0,0,.2-.36.38-.59,0-.01.01-.01.02-.02,1.11-1.18,1.27-2.99.31-4.37-.05-.08-.12-.17-.18-.24-.93.91-1.26,2.27-.9,3.5"/>
    </clipPath>
    <linearGradient id="Gradiente_sem_nome_6" data-name="Gradiente sem nome 6" x1="0" y1="102.48" x2="1" y2="102.48" gradientTransform="translate(13.08 828.27) scale(7.45 -7.45)" gradientUnits="userSpaceOnUse">
      <stop offset="0" stop-color="#41648c"/>
      <stop offset=".22" stop-color="#527da9"/>
      <stop offset=".58" stop-color="#6aa2d2"/>
      <stop offset=".76" stop-color="#74b1e3"/>
      <stop offset="1" stop-color="#74b1e3"/>
    </linearGradient>
    <clipPath id="clippath-7">
      <path class="st23" d="M15.28,76.21c0,2.55.77,4.91,2.09,6.89.09-.07.16-.13.24-.18,1.04-.79.68-1.87.59-2.07-.02-.04-.04-.1-.09-.19-1.92-4.15-2.16-8.09-.72-11.35-1.33,1.97-2.11,4.35-2.11,6.91"/>
    </clipPath>
    <linearGradient id="Gradiente_sem_nome_7" data-name="Gradiente sem nome 7" x1="0" y1="102.51" x2="1" y2="102.51" gradientTransform="translate(15.28 389.34) scale(3.05 -3.05)" gradientUnits="userSpaceOnUse">
      <stop offset="0" stop-color="#41648c"/>
      <stop offset=".22" stop-color="#527da9"/>
      <stop offset=".58" stop-color="#6aa2d2"/>
      <stop offset=".76" stop-color="#74b1e3"/>
      <stop offset="1" stop-color="#74b1e3"/>
    </linearGradient>
    <clipPath id="clippath-8">
      <path class="st23" d="M26.39,76.33c.29.75,1.01,1.45,1.81,1.74l.11.04c.12.05.3.13.58.2-.85-.82-1.71-1.77-2.49-3.44-.2.47-.2.96,0,1.47"/>
    </clipPath>
    <linearGradient id="Gradiente_sem_nome_8" data-name="Gradiente sem nome 8" x1="0" y1="102.51" x2="1" y2="102.51" gradientTransform="translate(26.25 347.37) scale(2.64 -2.64)" gradientUnits="userSpaceOnUse">
      <stop offset="0" stop-color="#41648c"/>
      <stop offset=".22" stop-color="#527da9"/>
      <stop offset=".58" stop-color="#6aa2d2"/>
      <stop offset=".76" stop-color="#74b1e3"/>
      <stop offset="1" stop-color="#74b1e3"/>
    </linearGradient>
    <clipPath id="clippath-9">
      <path class="st23" d="M23.6,58.52c.49.99,1.08,2.61.72,4.15-.23.93-.55,1.68-.83,2.33-.36.84-.67,1.56-.68,2.45,0,.17.12,1.82,1.77,1.82h.69c-.26-2.6.93-4.1,1.03-6.26.09-1.97-1.22-4.42-2.03-5.5-.19.35-.42.69-.67,1"/>
    </clipPath>
    <linearGradient id="Gradiente_sem_nome_9" data-name="Gradiente sem nome 9" x1="0" y1="102.51" x2="1" y2="102.51" gradientTransform="translate(22.81 422.15) scale(3.5 -3.5)" gradientUnits="userSpaceOnUse">
      <stop offset="0" stop-color="#41648c"/>
      <stop offset=".22" stop-color="#527da9"/>
      <stop offset=".58" stop-color="#6aa2d2"/>
      <stop offset=".76" stop-color="#74b1e3"/>
      <stop offset="1" stop-color="#74b1e3"/>
    </linearGradient>
    <clipPath id="clippath-10">
      <path class="st23" d="M50.28,78.31c.28-.07.46-.15.58-.2l.11-.04c.79-.29,1.52-.98,1.81-1.74.19-.5.19-.99-.01-1.47-.79,1.67-1.64,2.63-2.49,3.44"/>
    </clipPath>
    <linearGradient id="Gradiente_sem_nome_10" data-name="Gradiente sem nome 10" x1="0" y1="102.51" x2="1" y2="102.51" gradientTransform="translate(50.28 347.56) scale(2.64 -2.64)" gradientUnits="userSpaceOnUse">
      <stop offset="0" stop-color="#41648c"/>
      <stop offset=".22" stop-color="#527da9"/>
      <stop offset=".58" stop-color="#6aa2d2"/>
      <stop offset=".76" stop-color="#74b1e3"/>
      <stop offset="1" stop-color="#74b1e3"/>
    </linearGradient>
    <clipPath id="clippath-11">
      <path class="st23" d="M20.48,54.21c-.31.5-.23,1.11-.04,1.63-.63.02-1.27.16-1.65.66l-2.81,3.83c.65.21,1.34.33,2.06.33,1.45,0,2.8-.47,3.88-1.27.33,1.48.36,3.57-3.02,8.3-4.05,5.66-.45,12.33-.21,12.94.25.61.37,1.83-.76,2.68-1.13.87-4.29,2.81-4.29,2.81,0,0,2.74,2.46,6.8,1.85,1.83-.28,3.35-.97,4.9-1.32.54-.15,1.11-.23,1.7-.23,1.91,0,3.62.82,4.81,2.12h6.6c.49,0,.88-.39.88-.88,0-.13-.03-.24-.07-.34h-5.6l-.92-.8s-.03-.03-.07-.06l-2.15-1.95c.2-.1.42-.16.66-.16.82,0,1.49.67,1.49,1.49,0,.15-.02.28-.06.41,0,0,1.92.9,3.51-.6h0c.06-.33.09-.67.09-1.01,0-3.11-2.52-5.57-5.63-5.63-1.69-.03-2.38-.4-2.58-.47-1.47-.53-2.94-2.35-2-4.12.92-1.72,1.21-3.39,1.17-4.65h-2.61c-2.22,0-2.3-2.35-2.3-2.35,0-1.72,1.02-2.81,1.52-4.9.38-1.58-.42-3.33-.83-4.09,1.03-1.16,1.65-2.7,1.65-4.37,0-1.43-.45-2.76-1.23-3.83l-2.92,3.97Z"/>
    </clipPath>
    <linearGradient id="Gradiente_sem_nome_11" data-name="Gradiente sem nome 11" x1="0" y1="102.51" x2="1" y2="102.51" gradientTransform="translate(13.64 2703.28) scale(25.69 -25.69)" gradientUnits="userSpaceOnUse">
      <stop offset="0" stop-color="#41648c"/>
      <stop offset=".22" stop-color="#527da9"/>
      <stop offset=".58" stop-color="#6aa2d2"/>
      <stop offset=".76" stop-color="#74b1e3"/>
      <stop offset="1" stop-color="#74b1e3"/>
    </linearGradient>
    <clipPath id="clippath-12">
      <path class="st23" d="M33.71,86.88s.11.09.11.09h5.14s-.08-.05-.12-.07l-.03-.02s-1.6-.72-2.32-1.05c-.12.12-1.16,1.13-2.78,1.05"/>
    </clipPath>
    <linearGradient id="Gradiente_sem_nome_12" data-name="Gradiente sem nome 12" x1="0" y1="102.51" x2="1" y2="102.51" gradientTransform="translate(33.71 624.39) scale(5.25 -5.25)" gradientUnits="userSpaceOnUse">
      <stop offset="0" stop-color="#41648c"/>
      <stop offset=".22" stop-color="#527da9"/>
      <stop offset=".58" stop-color="#6aa2d2"/>
      <stop offset=".76" stop-color="#74b1e3"/>
      <stop offset="1" stop-color="#74b1e3"/>
    </linearGradient>
    <clipPath id="clippath-13">
      <path class="st23" d="M39.55,82.32c-1.17,0-2.3-.14-3.38-.38.19.39.34.8.45,1.22.95.18,1.95.27,2.96.27s2-.09,2.95-.27c.11-.43.26-.84.46-1.23-1.1.25-2.24.39-3.43.39"/>
    </clipPath>
    <linearGradient id="Gradiente_sem_nome_13" data-name="Gradiente sem nome 13" x1="0" y1="102.51" x2="1" y2="102.51" gradientTransform="translate(36.17 781.47) scale(6.82 -6.82)" gradientUnits="userSpaceOnUse">
      <stop offset="0" stop-color="#41648c"/>
      <stop offset=".22" stop-color="#527da9"/>
      <stop offset=".58" stop-color="#6aa2d2"/>
      <stop offset=".76" stop-color="#74b1e3"/>
      <stop offset="1" stop-color="#74b1e3"/>
    </linearGradient>
    <clipPath id="clippath-14">
      <path class="st23" d="M52.84,63.01c.09,2.15,1.29,3.66,1.03,6.26h.69c1.65,0,1.76-1.66,1.77-1.82,0-.89-.32-1.61-.68-2.45-.28-.65-.6-1.4-.83-2.33-.37-1.54.22-3.16.72-4.15-.25-.32-.48-.65-.67-1-.8,1.08-2.12,3.52-2.03,5.5"/>
    </clipPath>
    <linearGradient id="Gradiente_sem_nome_14" data-name="Gradiente sem nome 14" x1="0" y1="102.51" x2="1" y2="102.51" gradientTransform="translate(52.83 422.32) scale(3.5 -3.5)" gradientUnits="userSpaceOnUse">
      <stop offset="0" stop-color="#41648c"/>
      <stop offset=".22" stop-color="#527da9"/>
      <stop offset=".58" stop-color="#6aa2d2"/>
      <stop offset=".76" stop-color="#74b1e3"/>
      <stop offset="1" stop-color="#74b1e3"/>
    </linearGradient>
    <clipPath id="clippath-15">
      <path class="st23" d="M61.03,80.65c-.05.09-.07.16-.09.19-.08.21-.44,1.28.6,2.07.07.05.15.11.24.18,1.33-1.97,2.1-4.34,2.1-6.89s-.78-4.94-2.12-6.91c1.43,3.25,1.2,7.2-.73,11.35"/>
    </clipPath>
    <linearGradient id="Gradiente_sem_nome_15" data-name="Gradiente sem nome 15" x1="0" y1="102.51" x2="1" y2="102.51" gradientTransform="translate(60.81 389.59) scale(3.06 -3.06)" gradientUnits="userSpaceOnUse">
      <stop offset="0" stop-color="#41648c"/>
      <stop offset=".22" stop-color="#527da9"/>
      <stop offset=".58" stop-color="#6aa2d2"/>
      <stop offset=".76" stop-color="#74b1e3"/>
      <stop offset="1" stop-color="#74b1e3"/>
    </linearGradient>
    <clipPath id="clippath-16">
      <path class="st23" d="M54.51,54.08c0,1.67.63,3.21,1.66,4.37-.41.76-1.22,2.51-.83,4.09.5,2.09,1.51,3.18,1.52,4.9,0,0-.08,2.35-2.3,2.35h-2.61c-.03,1.26.26,2.93,1.17,4.65.94,1.77-.53,3.59-2,4.12-.2.07-.89.44-2.58.47-3.11.06-5.63,2.52-5.63,5.63,0,.34.03.68.09,1.01,0,0,0,0,0,0,1.59,1.49,3.51.6,3.51.6-.03-.12-.06-.26-.06-.41,0-.82.67-1.49,1.49-1.49.24,0,.47.06.67.16l-2.15,1.95s-.07.06-.07.06l-.92.8h-5.6c-.05.11-.07.22-.07.34,0,.48.39.88.88.88h6.6c1.19-1.3,2.9-2.12,4.81-2.12.59,0,1.16.08,1.7.23,1.54.34,3.07,1.04,4.89,1.32,4.07.62,6.8-1.85,6.8-1.85,0,0-3.15-1.95-4.29-2.81-1.13-.86-1.01-2.07-.77-2.68.25-.61,3.85-7.28-.2-12.94-3.39-4.73-3.36-6.81-3.02-8.3,1.09.79,2.43,1.27,3.88,1.27.72,0,1.42-.12,2.07-.33l-2.82-3.83c-.38-.5-1.01-.64-1.65-.66.19-.53.27-1.13-.04-1.63l-2.92-3.97c-.77,1.08-1.23,2.4-1.23,3.83"/>
    </clipPath>
    <linearGradient id="Gradiente_sem_nome_16" data-name="Gradiente sem nome 16" x1="0" y1="102.51" x2="1" y2="102.51" gradientTransform="translate(39.81 2703.19) scale(25.69 -25.69)" gradientUnits="userSpaceOnUse">
      <stop offset="0" stop-color="#41648c"/>
      <stop offset=".22" stop-color="#527da9"/>
      <stop offset=".58" stop-color="#6aa2d2"/>
      <stop offset=".76" stop-color="#74b1e3"/>
      <stop offset="1" stop-color="#74b1e3"/>
    </linearGradient>
    <clipPath id="clippath-17">
      <path class="st23" d="M40.34,86.88l-.04.02s-.08.04-.11.07h5.13s.08-.07.11-.09c-1.62.08-2.66-.93-2.77-1.05-.73.32-2.32,1.05-2.32,1.05"/>
    </clipPath>
    <linearGradient id="Gradiente_sem_nome_17" data-name="Gradiente sem nome 17" x1="0" y1="102.51" x2="1" y2="102.51" gradientTransform="translate(40.19 624.39) scale(5.25 -5.25)" gradientUnits="userSpaceOnUse">
      <stop offset="0" stop-color="#41648c"/>
      <stop offset=".22" stop-color="#527da9"/>
      <stop offset=".58" stop-color="#6aa2d2"/>
      <stop offset=".76" stop-color="#74b1e3"/>
      <stop offset="1" stop-color="#74b1e3"/>
    </linearGradient>
    <clipPath id="clippath-18">
      <path class="st23" d="M38.49,63.09c0-.58.47-1.06,1.05-1.06s1.06.48,1.06,1.06-.47,1.06-1.06,1.06-1.05-.48-1.05-1.06M38.46,59.23c-.93.07-1.2.64-1.22.86-.02.22-.1,1.06.78.91.95-.17,1.61.08,1.61.08,0,0,.18.07.22.12.1.11.03.25-.11.2,0,0-.08-.04-.2-.09-.27-.12-.98-.22-1.6-.07-.62.15-1.74.93-2.05,2.29-.31,1.36.9,1.01,1.58,1.17,1.47.32,2.29,1.97,2.45,2.21.16.23.84,1.21,1.65.8.81-.42.67-1.16.54-1.94-.13-.78.13-2.07.25-2.78.65-2.99-1.95-3.58-2.11-3.63-.3-.08-.65-.14-1.16-.14-.19,0-.41,0-.65.03"/>
    </clipPath>
    <linearGradient id="Gradiente_sem_nome_18" data-name="Gradiente sem nome 18" x1="0" y1="102.49" x2="1" y2="102.49" gradientTransform="translate(35.86 743.4) scale(6.63 -6.63)" gradientUnits="userSpaceOnUse">
      <stop offset="0" stop-color="#41648c"/>
      <stop offset=".22" stop-color="#527da9"/>
      <stop offset=".58" stop-color="#6aa2d2"/>
      <stop offset=".76" stop-color="#74b1e3"/>
      <stop offset="1" stop-color="#74b1e3"/>
    </linearGradient>
    <clipPath id="clippath-19">
      <path class="st23" d="M33.68,71.67l.33-.43h1.05c.51.72,1.09,1.36,1.73,1.92-1.13-.31-2.18-.82-3.11-1.48M36.4,71.23h2.61v2.2c-.98-.53-1.86-1.28-2.61-2.2M40.09,71.23h2.62c-.75.92-1.64,1.67-2.62,2.2v-2.2ZM44.04,71.23h.13l.63.84c-.77.46-1.61.83-2.49,1.08.64-.55,1.22-1.19,1.73-1.92M30.35,67.75h2.98c.19.59.42,1.16.68,1.7l-.61.8h-1.35c-.68-.74-1.26-1.58-1.71-2.5M34.49,67.75h.82l-.55.72c-.1-.24-.19-.47-.27-.72M35.28,69.55l1.36-1.8h2.36v2.5h-3.32c-.15-.23-.28-.46-.41-.7M45.5,68.52c.1-.25.19-.51.28-.77h2.99c-.45.92-1.02,1.76-1.71,2.5h-.24l-1.31-1.73ZM29.34,63.59h3.31c.02,1.1.16,2.17.41,3.19h-3.12c-.36-1-.57-2.07-.6-3.19M46.45,63.59h3.31c-.03,1.11-.24,2.19-.6,3.19h-3.12c.24-1.01.39-2.08.41-3.19M30.1,59.44h3.07c-.28,1-.45,2.06-.5,3.17h-3.3c.08-1.11.33-2.18.74-3.17M45.94,59.44h3.07c.41.99.66,2.05.74,3.17h-3.3c-.05-1.1-.22-2.17-.5-3.17M37.05,61.15c-.34-.38-.29-.93-.26-1.12.04-.4.44-1.17,1.64-1.27.24-.02.47-.03.69-.03.49,0,.89.05,1.29.15h.01c.75.21,1.48.62,1.97,1.29l.56-.74h1.85c.3.99.48,2.06.54,3.17h-2.42c-.02.15-.04.3-.08.45l-.03.16c-.02.11-.05.23-.06.37h2.6c-.02,1.11-.17,2.18-.44,3.19h-.75l-1.58-2.09c-.04.37-.05.73,0,.99v.04c.13.77.3,1.82-.79,2.38l1.62,2.14s-.01,0-.01.01h-3.32v-2.48c-.23-.21-.41-.44-.53-.62-.02-.03-.05-.08-.09-.14-.09-.15-.24-.41-.46-.7v.47h-1.62l.91-1.2c-.26-.2-.56-.37-.9-.44-.03,0-.07-.01-.1-.02l-1.25,1.66h-1.86c-.26-1.01-.41-2.08-.43-3.19h1.67c0-.06.02-.11.03-.17.07-.3.17-.56.29-.81h-1.98c.06-1.11.24-2.17.53-3.17h.95l1.47,1.94c.11-.08.22-.17.32-.24M44.19,57.8c.1.22.19.44.28.66h-.78l.5-.66ZM32.47,55.96h.15l1.21,1.61c-.13.29-.25.59-.36.9h-2.91c.51-.93,1.15-1.77,1.9-2.5M35.99,55.96h3.02v2.5h-1.13l-1.89-2.5ZM40.09,55.96h3.05c.18.26.35.52.51.8l-1.3,1.71h-2.26v-2.5ZM44.92,56.83l.66-.87h1.05c.76.73,1.4,1.57,1.91,2.5h-2.91c-.2-.57-.44-1.11-.71-1.63M34.74,54.31c.65-.34,1.33-.62,2.05-.83-.51.44-.99.95-1.42,1.5h-.12l-.51-.67ZM42.31,53.48c1.02.29,1.97.73,2.83,1.29l-.16.21h-1.25c-.44-.55-.91-1.06-1.42-1.5M39.01,53.2v1.78h-2.24c.67-.73,1.42-1.33,2.24-1.78M40.09,53.19c.82.45,1.58,1.06,2.25,1.78h-2.25v-1.78ZM37.86,50.92l1.15-.61v1.77c-.64.03-1.27.11-1.88.25-.63.14-1.24.33-1.83.57h0c-.51.21-1,.45-1.48.74,0,0,0,0-.01,0-.06.04-.13.08-.19.12,0,0,0,0-.01,0-.06.04-.12.08-.19.12l-1.15-1.51,1.28-.21-1.84-1.03-1.84-1.03.5,2.05.5,2.05.55-1.18,1.13,1.49s-.04.03-.07.05c0,0-.02.01-.02.02-.05.04-.1.08-.16.13-.01,0-.02.02-.03.03-.05.04-.1.08-.15.13-.01.01-.02.02-.03.03-.05.04-.11.09-.16.13,0,0,0,0,0,0-.17.16-.34.32-.5.48h0s-.09.1-.13.14c-.01.01-.03.03-.04.04-.05.04-.08.09-.12.13-.02.02-.03.04-.05.06-.04.04-.07.08-.11.13-.02.02-.03.04-.05.06-.04.04-.07.09-.11.13-.02.02-.03.04-.05.06-.04.05-.07.09-.11.14,0,0-.01.02-.02.02-.09.11-.17.22-.25.34,0,0,0,.01-.01.02-.03.04-.06.09-.09.14-.02.02-.03.05-.05.07-.02.04-.05.08-.08.12-.02.03-.04.06-.06.09-.02.04-.05.08-.07.12-.02.03-.04.06-.06.09-.03.04-.05.08-.07.12-.02.03-.04.06-.06.1-.02.04-.05.08-.07.12-.02.03-.04.07-.06.1-.02.04-.04.08-.06.12-.04.07-.07.13-.11.2-.02.04-.04.08-.06.11-.02.04-.04.08-.06.12-.02.04-.03.08-.05.11-.02.04-.04.08-.06.12-.02.04-.03.07-.05.11-.02.04-.03.08-.06.12-.02.04-.03.08-.05.11-.02.04-.04.09-.05.13-.02.04-.03.07-.05.11-.01.04-.03.09-.05.14-.01.03-.03.07-.04.1-.02.06-.04.12-.06.18-.01.03-.02.06-.03.09-.02.07-.05.14-.07.21,0,.03-.02.06-.03.09-.01.05-.03.11-.04.16-.01.03-.02.07-.03.1-.01.05-.02.1-.04.15-.01.03-.02.07-.03.1-.01.05-.02.1-.03.15,0,.03-.02.07-.03.11-.01.05-.02.1-.03.16,0,.04-.02.06-.02.1-.01.06-.02.13-.03.19,0,.03-.01.05-.02.07-.01.09-.03.18-.04.26,0,.02,0,.04-.01.07,0,.07-.02.13-.02.2,0,.03,0,.07-.01.1,0,.06-.02.11-.02.17,0,.03,0,.07,0,.1,0,.06-.01.11-.01.16,0,.03,0,.07,0,.11,0,.05,0,.11,0,.16,0,.03,0,.07,0,.1,0,.06,0,.12,0,.18v.09c0,.09,0,.18,0,.27,0,.09,0,.18,0,.27v.09c0,.06,0,.12,0,.18,0,.03,0,.07,0,.1,0,.05,0,.11,0,.17,0,.03,0,.07,0,.11,0,.05,0,.11.01.16,0,.03,0,.07,0,.1,0,.06.02.11.02.17,0,.03,0,.06.01.1,0,.07.02.13.02.2,0,.02,0,.04.01.07.01.09.03.17.04.26,0,.03,0,.05.02.07.01.06.02.12.03.18,0,.03.01.07.02.1.01.05.02.1.03.16,0,.04.02.07.03.1.01.05.02.1.03.15,0,.04.02.07.03.11.02.05.02.1.04.15.01.03.02.07.03.1.01.05.03.1.04.16.01.03.02.06.03.09.02.07.05.14.07.22,0,.03.02.05.03.08.02.06.04.12.06.19.02.03.03.07.04.1.01.05.03.09.05.14.02.04.03.08.05.11.01.05.03.09.05.13.02.04.03.08.05.11.02.04.04.08.06.12.02.04.03.08.05.11.02.04.04.08.06.12.02.03.03.07.05.11.02.04.04.08.06.12.02.03.04.07.06.1.04.07.07.14.11.21.02.04.05.08.06.12.02.03.04.07.06.1.02.04.05.08.07.12.02.03.04.07.06.1.02.04.05.08.07.12.02.03.04.06.06.1.03.04.05.08.07.12.02.03.04.06.06.09.03.04.06.08.08.12.02.02.04.05.05.08.03.04.06.08.09.13,0,0,.01.01.02.02.08.11.16.22.24.33.01,0,.02.02.03.03.03.05.07.09.11.14.01.02.03.04.05.06.03.04.07.09.1.13.02.02.04.04.05.06.04.04.08.09.11.12.02.02.03.04.05.06.04.04.07.09.12.13,0,0,.02.03.04.04.04.05.09.09.13.14t0,0c.16.16.33.32.5.48,0,0,0,0,0,0,.05.05.1.09.16.14,0,0,.02.02.03.03.03.03.05.05.08.07l-.68.9-1.29-.19-2.09,2.75,1.94.21.74,1.83,2.09-2.75-.54-1.2.67-.88c.19.13.37.25.56.37,0,0,0,.01.01.01.06.04.13.08.19.12,0,0,.01,0,.01,0,.47.28.96.53,1.48.74h0c.59.24,1.2.43,1.83.56.61.14,1.24.22,1.88.25v1.32l-1.15.63v3.45l1.68-1.01,1.69,1.01v-3.45l-1.16-.63v-1.32c.65-.03,1.28-.12,1.9-.25.08-.01.15-.03.23-.05.55-.13,1.08-.3,1.59-.51h0c.51-.21,1-.45,1.47-.74h.02c.06-.04.12-.08.19-.12,0,0,0,0,.01-.01.22-.14.44-.28.66-.44l.72.95-.54,1.2,2.09,2.75.74-1.83,1.95-.21-2.09-2.75-1.29.19-.74-.97s.02-.01.03-.02c.05-.05.1-.09.15-.14,0,0,0,0,0,0,.17-.16.33-.32.5-.48h0s.09-.1.13-.14c.01-.01.03-.03.04-.04.05-.04.08-.09.12-.13.02-.02.03-.04.05-.06.04-.04.07-.08.11-.12.01-.02.03-.04.05-.06.04-.04.08-.08.11-.13.01-.02.03-.04.04-.06.04-.05.08-.09.11-.14,0,0,.01-.01.02-.02.08-.11.17-.23.25-.34,0,0,0-.01.01-.01.03-.05.06-.09.09-.13.02-.02.03-.05.05-.07.03-.04.05-.08.08-.13.02-.03.04-.06.06-.08.03-.04.06-.08.08-.12.02-.03.04-.06.06-.09.02-.05.05-.08.07-.12.02-.03.04-.07.06-.1.02-.04.05-.08.07-.12.02-.03.04-.07.06-.1.02-.04.04-.08.06-.12.03-.06.06-.11.09-.17.02-.05.05-.1.08-.15.02-.04.04-.08.06-.12.02-.04.04-.07.06-.11.02-.04.04-.08.06-.12.01-.04.03-.07.05-.11.02-.04.03-.08.05-.12.02-.03.03-.08.05-.11.02-.04.04-.08.05-.13.01-.03.03-.07.04-.11.02-.05.04-.09.06-.14.01-.03.03-.07.04-.1.02-.06.05-.12.06-.19.01-.03.02-.06.03-.09.02-.07.04-.14.07-.21.01-.03.02-.06.03-.09.01-.05.03-.1.05-.16,0-.03.02-.07.03-.1.01-.05.03-.1.04-.15,0-.04.02-.07.02-.11.01-.05.03-.1.04-.15,0-.03.01-.07.02-.1.01-.06.02-.11.04-.16,0-.03.01-.07.02-.1.01-.06.02-.12.03-.18,0-.02,0-.05.01-.07.02-.09.03-.17.04-.26,0-.02,0-.05.01-.07,0-.07.02-.13.03-.2,0-.04,0-.06,0-.1.01-.06.02-.11.02-.17,0-.03,0-.07,0-.1,0-.06.01-.11.01-.16,0-.03,0-.07,0-.11,0-.06,0-.11,0-.17,0-.03.01-.07.01-.1,0-.06,0-.13,0-.18,0-.03,0-.06,0-.09,0-.09,0-.18,0-.27,0-.09,0-.18,0-.27,0-.03,0-.06,0-.09,0-.06,0-.12,0-.18,0-.03,0-.07-.01-.1,0-.06,0-.11,0-.17,0-.04,0-.07,0-.11,0-.06,0-.11-.01-.16,0-.03,0-.07,0-.1,0-.06-.01-.11-.02-.17,0-.03,0-.06,0-.1,0-.07-.02-.13-.03-.2,0-.02,0-.04-.01-.07-.01-.09-.02-.17-.04-.26,0-.03,0-.05-.01-.08,0-.06-.02-.12-.03-.19,0-.03-.01-.06-.02-.1-.01-.05-.03-.1-.04-.16,0-.03-.01-.07-.02-.11-.01-.05-.03-.1-.04-.15,0-.03-.02-.07-.02-.1-.01-.05-.03-.1-.04-.15-.01-.04-.02-.07-.03-.11-.02-.05-.03-.1-.05-.15-.01-.03-.02-.06-.03-.09-.02-.07-.05-.14-.07-.21-.01-.03-.02-.06-.03-.08-.02-.07-.04-.13-.07-.19-.01-.04-.03-.07-.04-.1-.02-.05-.03-.09-.06-.14-.01-.04-.03-.07-.04-.11-.02-.04-.03-.09-.05-.13-.01-.03-.03-.07-.05-.11-.02-.04-.03-.08-.05-.12-.02-.04-.04-.08-.05-.11-.02-.04-.04-.08-.06-.12-.02-.04-.03-.08-.05-.11-.02-.04-.04-.08-.06-.12-.02-.04-.04-.08-.06-.11-.03-.07-.07-.13-.11-.2-.02-.04-.04-.08-.06-.12-.02-.03-.04-.07-.06-.1-.02-.04-.05-.08-.07-.12-.02-.03-.04-.07-.06-.1-.02-.04-.05-.08-.07-.12-.02-.03-.04-.06-.06-.09-.02-.04-.05-.08-.08-.12-.02-.03-.04-.06-.06-.09-.03-.04-.06-.08-.08-.12l-.05-.08s-.06-.09-.09-.13c0,0,0-.01-.01-.02-.08-.11-.17-.22-.25-.33,0,0-.01-.02-.02-.03-.04-.05-.07-.09-.11-.14-.01-.02-.03-.04-.04-.06-.03-.04-.07-.09-.11-.13-.02-.02-.03-.04-.05-.06-.04-.04-.07-.09-.11-.13-.02-.02-.03-.04-.05-.06-.04-.04-.08-.08-.12-.13,0-.01-.02-.03-.04-.05-.04-.04-.08-.09-.13-.14h0c-.16-.17-.32-.33-.49-.48,0,0,0,0,0,0-.05-.05-.1-.09-.15-.13,0-.01-.02-.02-.03-.03-.05-.04-.1-.09-.15-.13-.01-.01-.02-.02-.03-.03-.05-.04-.1-.08-.15-.12,0,0,0,0,0,0l1.19-1.57.54,1.18.5-2.05.5-2.05-1.84,1.03-1.84,1.03,1.28.21-1.19,1.58c-.09-.06-.19-.12-.28-.18,0,0,0,0-.01,0-.07-.04-.13-.08-.19-.12,0,0,0,0-.02,0-.47-.28-.96-.52-1.47-.73h0c-.59-.24-1.2-.43-1.83-.57-.61-.13-1.25-.22-1.89-.25v-1.76l1.15.61-.84-1.94-.84-1.93-1.68,3.87Z"/>
    </clipPath>
    <linearGradient id="Gradiente_sem_nome_19" data-name="Gradiente sem nome 19" x1="0" y1="102.51" x2="1" y2="102.51" gradientTransform="translate(28.15 2416.57) scale(22.95 -22.95)" gradientUnits="userSpaceOnUse">
      <stop offset="0" stop-color="#41648c"/>
      <stop offset=".22" stop-color="#527da9"/>
      <stop offset=".58" stop-color="#6aa2d2"/>
      <stop offset=".76" stop-color="#74b1e3"/>
      <stop offset="1" stop-color="#74b1e3"/>
    </linearGradient>
    <clipPath id="clippath-20">
      <path class="st23" d="M44.08,41.2l.62-2.53h0s0-.01,0-.01c.17-.68.86-1.1,1.55-.94.69.17,1.11.86.95,1.55h0s0,0,0,0l-.62,2.54-2.5-.61ZM31.82,39.28h0c-.18-.69.22-1.39.91-1.58.69-.18,1.39.22,1.57.9h0s0,0,0,0l.68,2.56-2.48.66-.68-2.56ZM38.25,38.14c0-.71.58-1.28,1.29-1.28s1.28.57,1.29,1.28h0v2.74h-2.57v-2.74ZM36.92,35.17l.1,1.05c-.62.06-1.24.13-1.85.23l-.16-1.04-5.07,1.29.35,1c-.58.2-1.15.42-1.7.67l-.42-.97-2.38,1.16.66,1.23s0,0,0,0l.19.36c.61-.3,1.35-.07,1.68.52h0s1.16,2.1,1.16,2.1l-1.1.61.51.96c3.26-1.46,6.86-2.27,10.65-2.27s7.4.81,10.65,2.27l.52-.97-1.11-.58,1.12-2.14h0s0,0,0,0h0c.33-.63,1.11-.87,1.74-.54,0,0,0,0,0,0l.33-.62s0,0,0,0l.5-.93-2.36-1.14-.41.97c-.56-.24-1.13-.46-1.7-.67l.35-.99-5.07-1.29-.17,1.04c-.62-.1-1.25-.18-1.89-.23l.1-1.05h-5.23Z"/>
    </clipPath>
    <linearGradient id="Gradiente_sem_nome_20" data-name="Gradiente sem nome 20" x1="0" y1="102.51" x2="1" y2="102.51" gradientTransform="translate(25.78 2860.83) scale(27.52 -27.52)" gradientUnits="userSpaceOnUse">
      <stop offset="0" stop-color="#41648c"/>
      <stop offset=".22" stop-color="#527da9"/>
      <stop offset=".58" stop-color="#6aa2d2"/>
      <stop offset=".76" stop-color="#74b1e3"/>
      <stop offset="1" stop-color="#74b1e3"/>
    </linearGradient>
    <clipPath id="clippath-21">
      <path class="st23" d="M29.17,34.49l.47,1.35q2.61-.66,2.61-.66s0,0,2.6-.66l-.23-1.41c-5.49,1.39-.04.01-5.45,1.38"/>
    </clipPath>
    <linearGradient id="Gradiente_sem_nome_21" data-name="Gradiente sem nome 21" x1="0" y1="102.51" x2="1" y2="102.51" gradientTransform="translate(29.17 616.78) scale(5.68 -5.68)" gradientUnits="userSpaceOnUse">
      <stop offset="0" stop-color="#41648c"/>
      <stop offset=".22" stop-color="#527da9"/>
      <stop offset=".58" stop-color="#6aa2d2"/>
      <stop offset=".76" stop-color="#74b1e3"/>
      <stop offset="1" stop-color="#74b1e3"/>
    </linearGradient>
    <clipPath id="clippath-22">
      <path class="st23" d="M25.95,35.86s0,0-1.28.62l.68,1.26,1.22-.59s0,0,1.23-.6l-.57-1.31q-1.28.62-1.28.62"/>
    </clipPath>
    <linearGradient id="Gradiente_sem_nome_22" data-name="Gradiente sem nome 22" x1="0" y1="102.51" x2="1" y2="102.51" gradientTransform="translate(24.68 356.86) scale(3.13 -3.13)" gradientUnits="userSpaceOnUse">
      <stop offset="0" stop-color="#41648c"/>
      <stop offset=".22" stop-color="#527da9"/>
      <stop offset=".58" stop-color="#6aa2d2"/>
      <stop offset=".76" stop-color="#74b1e3"/>
      <stop offset="1" stop-color="#74b1e3"/>
    </linearGradient>
    <clipPath id="clippath-23">
      <polygon class="st23" points="36.74 32.84 36.85 34.29 42.22 34.29 42.36 32.84 36.74 32.84"/>
    </clipPath>
    <linearGradient id="Gradiente_sem_nome_23" data-name="Gradiente sem nome 23" x1="0" y1="102.51" x2="1" y2="102.51" gradientTransform="translate(36.74 609.59) scale(5.62 -5.62)" gradientUnits="userSpaceOnUse">
      <stop offset="0" stop-color="#41648c"/>
      <stop offset=".22" stop-color="#527da9"/>
      <stop offset=".58" stop-color="#6aa2d2"/>
      <stop offset=".76" stop-color="#74b1e3"/>
      <stop offset="1" stop-color="#74b1e3"/>
    </linearGradient>
    <clipPath id="clippath-24">
      <path class="st23" d="M44.26,34.53c5.21,1.33,0,0,5.2,1.33l.47-1.36c-5.44-1.39,0,0-5.44-1.39l-.24,1.42Z"/>
    </clipPath>
    <linearGradient id="Gradiente_sem_nome_24" data-name="Gradiente sem nome 24" x1="0" y1="102.51" x2="1" y2="102.51" gradientTransform="translate(44.26 616.22) scale(5.67 -5.67)" gradientUnits="userSpaceOnUse">
      <stop offset="0" stop-color="#41648c"/>
      <stop offset=".22" stop-color="#527da9"/>
      <stop offset=".58" stop-color="#6aa2d2"/>
      <stop offset=".76" stop-color="#74b1e3"/>
      <stop offset="1" stop-color="#74b1e3"/>
    </linearGradient>
    <clipPath id="clippath-25">
      <path class="st23" d="M51.3,36.58q1.21.59,1.21.59s0,0,1.2.59l.68-1.27c-2.53-1.23,0,0-2.52-1.23l-.57,1.32Z"/>
    </clipPath>
    <linearGradient id="Gradiente_sem_nome_25" data-name="Gradiente sem nome 25" x1="0" y1="102.51" x2="1" y2="102.51" gradientTransform="translate(51.3 353.63) scale(3.09 -3.09)" gradientUnits="userSpaceOnUse">
      <stop offset="0" stop-color="#41648c"/>
      <stop offset=".22" stop-color="#527da9"/>
      <stop offset=".58" stop-color="#6aa2d2"/>
      <stop offset=".76" stop-color="#74b1e3"/>
      <stop offset="1" stop-color="#74b1e3"/>
    </linearGradient>
    <clipPath id="clippath-26">
      <path class="st23" d="M39.54,44.3c2.39,0,4.71.36,6.89,1.01h-13.79c2.19-.66,4.5-1.01,6.9-1.01M29.42,45.31h-4.88v5.76c.47.96.69,1.99.66,3.02-.04,1.28-.23,1.97-.65,2.93.3.38.69.97,1.06,1.67v-12.27h27.87v12.34c.38-.74.79-1.35,1.1-1.74-.42-.95-.61-1.64-.65-2.93-.03-1.03.19-2.06.66-3.02v-5.76h-4.95c-3.09-1.37-6.51-2.14-10.11-2.14s-7.02.76-10.11,2.14"/>
    </clipPath>
    <linearGradient id="Gradiente_sem_nome_26" data-name="Gradiente sem nome 26" x1="0" y1="102.51" x2="1" y2="102.51" gradientTransform="translate(24.55 3131.04) scale(30.05 -30.05)" gradientUnits="userSpaceOnUse">
      <stop offset="0" stop-color="#41648c"/>
      <stop offset=".22" stop-color="#527da9"/>
      <stop offset=".58" stop-color="#6aa2d2"/>
      <stop offset=".76" stop-color="#74b1e3"/>
      <stop offset="1" stop-color="#74b1e3"/>
    </linearGradient>
  </defs>
  <g class="st53">
    <path class="st6" d="M122.45,87.55v-51.45c0-.25.2-.46.46-.46h12.96c.25,0,.46.21.46.46v51.45c0,.25-.2.46-.46.46h-12.96c-.25,0-.46-.2-.46-.46"/>
    <path class="st6" d="M166.54,34.76c-14.94,0-27.04,12.11-27.04,27.04s12.11,27.04,27.04,27.04,27.04-12.11,27.04-27.04-12.11-27.04-27.04-27.04M166.54,75.28c-7.44,0-13.48-6.03-13.48-13.48s6.04-13.48,13.48-13.48,13.48,6.03,13.48,13.48-6.04,13.48-13.48,13.48"/>
    <path class="st6" d="M103.45,87.75l-8.54-17.23c-.08-.16-.24-.25-.41-.25h-6.17c-.25,0-.46.2-.46.46v16.83c0,.25-.2.46-.46.46h-12.59c-.25,0-.46-.2-.46-.46v-51.45c0-.25.2-.46.46-.46h25.76c11.62,0,18.21,7.69,18.21,17.43,0,8.81-5.21,13.65-9.96,15.52-.26.1-.36.41-.23.64l10.04,18.09c.17.31-.05.68-.4.68h-14.41c-.17,0-.33-.1-.41-.25M98.55,47.03h-10.22c-.25,0-.46.21-.46.46v10.86c0,.25.21.46.46.46h10.22c3.53,0,6.52-2.28,6.52-5.89s-2.98-5.89-6.52-5.89"/>
    <path class="st6" d="M22.16,15.05c.75.34,1.32.82,1.73,1.44.4.62.61,1.36.61,2.2s-.2,1.57-.61,2.19c-.41.62-.98,1.1-1.73,1.43-.75.34-1.63.5-2.64.5h-1.95v2.93h-3.17v-11.2h5.12c1.01,0,1.89.17,2.64.5M20.8,19.9c.33-.28.5-.68.5-1.21s-.17-.93-.5-1.22c-.33-.29-.82-.43-1.47-.43h-1.76v3.28h1.76c.65,0,1.14-.14,1.47-.42"/>
    <path class="st6" d="M38.57,22.77h-1.73v2.97h-3.17v-11.2h5.12c1.01,0,1.89.17,2.64.5.75.34,1.32.82,1.73,1.44.4.62.61,1.36.61,2.2s-.19,1.52-.57,2.12c-.38.6-.92,1.07-1.62,1.41l2.42,3.52h-3.39l-2.03-2.97ZM40.07,17.47c-.33-.29-.82-.43-1.47-.43h-1.76v3.28h1.76c.65,0,1.14-.14,1.47-.42.33-.28.5-.68.5-1.21s-.17-.93-.5-1.22"/>
    <polygon class="st6" points="62.14 23.29 62.14 25.74 53.15 25.74 53.15 14.55 61.93 14.55 61.93 16.99 56.29 16.99 56.29 18.88 61.26 18.88 61.26 21.25 56.29 21.25 56.29 23.29 62.14 23.29"/>
    <polygon class="st6" points="74.71 16.99 74.71 19.46 79.65 19.46 79.65 21.9 74.71 21.9 74.71 25.74 71.54 25.74 71.54 14.55 80.32 14.55 80.32 16.99 74.71 16.99"/>
    <polygon class="st6" points="98.44 23.29 98.44 25.74 89.46 25.74 89.46 14.55 98.24 14.55 98.24 16.99 92.59 16.99 92.59 18.88 97.56 18.88 97.56 21.25 92.59 21.25 92.59 23.29 98.44 23.29"/>
    <rect class="st6" x="107.85" y="14.55" width="3.17" height="11.19"/>
    <polygon class="st6" points="123.3 17.06 119.86 17.06 119.86 14.55 129.89 14.55 129.89 17.06 126.47 17.06 126.47 25.74 123.3 25.74 123.3 17.06"/>
    <path class="st6" d="M139.83,24.61c-.92-.91-1.38-2.19-1.38-3.85v-6.21h3.17v6.11c0,1.79.71,2.69,2.13,2.69s2.11-.9,2.11-2.69v-6.11h3.12v6.21c0,1.66-.46,2.95-1.38,3.85-.92.91-2.21,1.36-3.88,1.36s-2.96-.45-3.88-1.36"/>
    <path class="st6" d="M163.65,22.77h-1.73v2.97h-3.17v-11.2h5.12c1.01,0,1.89.17,2.64.5.75.34,1.32.82,1.73,1.44.4.62.61,1.36.61,2.2s-.19,1.52-.57,2.12c-.38.6-.92,1.07-1.62,1.41l2.42,3.52h-3.39l-2.03-2.97ZM165.15,17.47c-.33-.29-.82-.43-1.47-.43h-1.76v3.28h1.76c.65,0,1.14-.14,1.47-.42.33-.28.5-.68.5-1.21s-.17-.93-.5-1.22"/>
    <path class="st6" d="M185.74,23.57h-4.73l-.88,2.17h-3.23l4.94-11.19h3.12l4.96,11.19h-3.29l-.88-2.17ZM184.81,21.23l-1.44-3.58-1.44,3.58h2.88Z"/>
  </g>
  <g class="st27">
    <rect class="st24" x="23.34" y="86.98" width="7.77" height="1.59"/>
  </g>
  <g class="st47">
    <rect class="st16" x="48.04" y="86.98" width="7.76" height="1.59"/>
  </g>
  <g class="st34">
    <rect class="st48" x="10.26" y="43.62" width="14.17" height="16.85"/>
  </g>
  <g class="st10">
    <rect class="st41" x="55.24" y="43.65" width="14" height="16.93"/>
  </g>
  <g class="st30">
    <rect class="st5" x="58.41" y="60.81" width="7.29" height="8.65"/>
  </g>
  <g class="st2">
    <rect class="st43" x="13.08" y="60.74" width="7.78" height="8.15"/>
  </g>
  <g class="st3">
    <rect class="st39" x="15.28" y="69.3" width="3.37" height="13.8"/>
  </g>
  <g class="st32">
    <rect class="st50" x="26.2" y="74.87" width="2.69" height="3.44"/>
  </g>
  <g class="st14">
    <rect class="st8" x="22.81" y="57.51" width="3.58" height="11.76"/>
  </g>
  <g class="st15">
    <rect class="st44" x="50.28" y="74.87" width="2.69" height="3.44"/>
  </g>
  <g class="st21">
    <rect class="st17" x="13.64" y="50.24" width="25.69" height="38.36"/>
  </g>
  <g class="st37">
    <rect class="st28" x="33.71" y="85.84" width="5.25" height="1.13"/>
  </g>
  <g class="st49">
    <rect class="st26" x="36.17" y="81.93" width="6.82" height="1.5"/>
  </g>
  <g class="st38">
    <rect class="st54" x="52.75" y="57.51" width="3.58" height="11.76"/>
  </g>
  <g class="st7">
    <rect class="st29" x="60.49" y="69.3" width="3.37" height="13.8"/>
  </g>
  <g class="st46">
    <rect class="st42" x="39.81" y="50.24" width="25.69" height="38.36"/>
  </g>
  <g class="st4">
    <rect class="st20" x="40.18" y="85.84" width="5.25" height="1.13"/>
  </g>
  <g class="st9">
    <rect class="st51" x="35.59" y="59.2" width="7.44" height="8.9"/>
  </g>
  <g class="st40">
    <rect class="st25" x="28.15" y="47.05" width="22.95" height="32.91"/>
  </g>
  <g class="st31">
    <rect class="st45" x="25.78" y="35.17" width="27.52" height="9.16"/>
  </g>
  <g class="st0">
    <rect class="st1" x="29.13" y="33.1" width="5.71" height="2.73"/>
  </g>
  <g class="st11">
    <rect class="st33" x="24.68" y="35.24" width="3.12" height="2.5"/>
  </g>
  <g class="st12">
    <rect class="st19" x="36.74" y="32.84" width="5.62" height="1.45"/>
  </g>
  <g class="st52">
    <rect class="st36" x="44.26" y="33.11" width="5.67" height="2.75"/>
  </g>
  <g class="st18">
    <rect class="st22" x="51.3" y="35.26" width="3.09" height="2.5"/>
  </g>
  <g class="st35">
    <rect class="st13" x="24.55" y="43.18" width="30.05" height="15.59"/>
  </g>
</svg>