<?xml version="1.0" encoding="UTF-8"?>
<svg id="Camada_1" xmlns="http://www.w3.org/2000/svg" version="1.1" xmlns:xlink="http://www.w3.org/1999/xlink" viewBox="0 0 206.21 102.51">
  <!-- Generator: Adobe Illustrator 30.0.0, SVG Export Plug-In . SVG Version: 2.1.1 Build 123)  -->
  <defs>
    <style>
      .st0, .st1 {
        fill: #fff;
      }

      .st1 {
        fill-rule: evenodd;
      }

      .st2 {
        fill: none;
      }

      .st3 {
        clip-path: url(#clippath);
      }
    </style>
    <clipPath id="clippath">
      <rect class="st2" y="0" width="206.21" height="102.51"/>
    </clipPath>
  </defs>
  <g class="st3">
    <path class="st0" d="M122.45,87.55v-51.45c0-.25.2-.46.46-.46h12.96c.25,0,.46.21.46.46v51.45c0,.25-.2.46-.46.46h-12.96c-.25,0-.46-.2-.46-.46"/>
    <path class="st0" d="M166.54,34.76c-14.94,0-27.04,12.11-27.04,27.04s12.11,27.04,27.04,27.04,27.04-12.11,27.04-27.04-12.11-27.04-27.04-27.04M166.54,75.28c-7.44,0-13.48-6.03-13.48-13.48s6.04-13.48,13.48-13.48,13.48,6.03,13.48,13.48-6.04,13.48-13.48,13.48"/>
    <path class="st0" d="M103.45,87.75l-8.54-17.23c-.08-.16-.24-.25-.41-.25h-6.17c-.25,0-.46.2-.46.46v16.83c0,.25-.2.46-.46.46h-12.59c-.25,0-.46-.2-.46-.46v-51.45c0-.25.2-.46.46-.46h25.76c11.62,0,18.21,7.69,18.21,17.43,0,8.81-5.21,13.65-9.96,15.52-.26.1-.36.41-.23.64l10.04,18.09c.17.31-.05.68-.4.68h-14.41c-.17,0-.33-.1-.41-.25M98.55,47.03h-10.22c-.25,0-.46.21-.46.46v10.86c0,.25.21.46.46.46h10.22c3.53,0,6.52-2.28,6.52-5.89s-2.98-5.89-6.52-5.89"/>
    <path class="st0" d="M22.16,15.05c.75.34,1.32.82,1.73,1.44.4.62.61,1.36.61,2.2s-.2,1.57-.61,2.19c-.41.62-.98,1.1-1.73,1.43-.75.34-1.63.5-2.64.5h-1.95v2.93h-3.17v-11.2h5.12c1.01,0,1.89.17,2.64.5M20.8,19.9c.33-.28.5-.68.5-1.21s-.17-.93-.5-1.22c-.33-.29-.82-.43-1.47-.43h-1.76v3.28h1.76c.65,0,1.14-.14,1.47-.42"/>
    <path class="st0" d="M38.57,22.77h-1.73v2.97h-3.17v-11.2h5.12c1.01,0,1.89.17,2.64.5.75.34,1.32.82,1.73,1.44.4.62.61,1.36.61,2.2s-.19,1.52-.57,2.12c-.38.6-.92,1.07-1.62,1.41l2.42,3.52h-3.39l-2.03-2.97ZM40.07,17.47c-.33-.29-.82-.43-1.47-.43h-1.76v3.28h1.76c.65,0,1.14-.14,1.47-.42.33-.28.5-.68.5-1.21s-.17-.93-.5-1.22"/>
    <polygon class="st0" points="62.14 23.29 62.14 25.74 53.15 25.74 53.15 14.55 61.93 14.55 61.93 16.99 56.29 16.99 56.29 18.88 61.26 18.88 61.26 21.25 56.29 21.25 56.29 23.29 62.14 23.29"/>
    <polygon class="st0" points="74.71 16.99 74.71 19.46 79.65 19.46 79.65 21.9 74.71 21.9 74.71 25.74 71.54 25.74 71.54 14.55 80.32 14.55 80.32 16.99 74.71 16.99"/>
    <polygon class="st0" points="98.44 23.29 98.44 25.74 89.46 25.74 89.46 14.55 98.24 14.55 98.24 16.99 92.59 16.99 92.59 18.88 97.56 18.88 97.56 21.25 92.59 21.25 92.59 23.29 98.44 23.29"/>
    <rect class="st0" x="107.85" y="14.55" width="3.17" height="11.19"/>
    <polygon class="st0" points="123.3 17.06 119.86 17.06 119.86 14.55 129.89 14.55 129.89 17.06 126.47 17.06 126.47 25.74 123.3 25.74 123.3 17.06"/>
    <path class="st0" d="M139.83,24.61c-.92-.91-1.38-2.19-1.38-3.85v-6.21h3.17v6.11c0,1.79.71,2.69,2.13,2.69s2.11-.9,2.11-2.69v-6.11h3.12v6.21c0,1.66-.46,2.95-1.38,3.85-.92.91-2.21,1.36-3.88,1.36s-2.96-.45-3.88-1.36"/>
    <path class="st0" d="M163.65,22.77h-1.73v2.97h-3.17v-11.2h5.12c1.01,0,1.89.17,2.64.5.75.34,1.32.82,1.73,1.44.4.62.61,1.36.61,2.2s-.19,1.52-.57,2.12c-.38.6-.92,1.07-1.62,1.41l2.42,3.52h-3.39l-2.03-2.97ZM165.15,17.47c-.33-.29-.82-.43-1.47-.43h-1.76v3.28h1.76c.65,0,1.14-.14,1.47-.42.33-.28.5-.68.5-1.21s-.17-.93-.5-1.22"/>
    <path class="st0" d="M185.74,23.57h-4.73l-.88,2.17h-3.23l4.94-11.19h3.12l4.96,11.19h-3.29l-.88-2.17ZM184.81,21.23l-1.44-3.58-1.44,3.58h2.88Z"/>
    <path class="st1" d="M25.48,87.18h0c.51-.14,1.04-.2,1.56-.2,1.51,0,2.96.58,4.07,1.59h-3.47c-1.51,0-2.96-.28-4.3-.77.09-.03.17-.06.26-.08.64-.2,1.25-.4,1.88-.54"/>
    <path class="st1" d="M53.66,87.18h0c.63.14,1.24.33,1.88.54.09.03.17.05.26.08-1.34.49-2.78.77-4.29.77h-3.47c1.1-1.02,2.56-1.59,4.06-1.59.53,0,1.05.07,1.56.2"/>
    <path class="st1" d="M11.65,59.48h0c.52-1.06,1.37-1.86,2.38-2.29-1.38-.05-2.72-.58-3.77-1.56.12-.11.25-.22.39-.32,1.42-1.07,3.17-1.4,4.78-1.04-1.49-.9-2.6-2.39-2.98-4.15.18-.03.37-.04.56-.05,1.51-.07,2.92.39,4.06,1.2-.75-1.43-.89-3.15-.31-4.72.15.07.3.15.44.23.65.38,1.19.85,1.63,1.4-.07-1.19.25-2.41.95-3.44.12.1.24.2.36.32.47.45.83.98,1.1,1.53.2-1.13.78-2.19,1.7-2.96.08.12.16.24.24.36,1.26,2.15.75,4.85-1.09,6.4-.08-.12-.16-.24-.24-.36-.05-.08-.09-.16-.14-.25-.12.81-.42,1.6-.9,2.3-.12-.1-.24-.2-.35-.32-.13-.13-.26-.27-.38-.41.07.83-.04,1.67-.34,2.48-.15-.07-.3-.15-.45-.24-.11-.06-.22-.13-.33-.21.31.55.54,1.14.68,1.77-.18.02-.37.04-.56.05-.62.03-1.24-.04-1.82-.17.31.19.59.41.86.67-.12.11-.26.22-.39.32-.45.34-.93.6-1.43.79.31.03.61.08.91.17-.05.13-.1.25-.16.37-1.02,2.12-3.4,3.13-5.57,2.51.04-.13.1-.25.16-.38"/>
    <path class="st1" d="M69.21,59.05c-.02-.26-1.35-.58-2.32-.6-.14,0-.28,0-.4,0,.32-.3.59-.64.4-.79-.23-.18-1.11.04-1.53.37-.14.11-.25.23-.33.34.06-.19.1-.39.1-.54.03-.2-.1-.6-.26-1,.08.08.19.15.3.22.51.31,1.5.41,1.72.16.16-.19-.14-.51-.51-.79.1,0,.2,0,.31-.01,1.04-.09,2.43-.65,2.45-.97.02-.32-1.36-.54-2.4-.45-.15.01-.3.03-.44.06.4-.4.74-.85.57-1-.22-.19-1.21.18-1.71.63-.15.13-.27.26-.37.4.19-.56.28-1.07.03-1.01-.46.1-.93.51-1.29.94.2-.38.36-.74.35-.91,0-.16-.24-.33-.59-.49.62-.02,1.27-.17,1.75-.57.17-.15-.01-.38-.35-.6,0,0,.01,0,.02,0,.79-.15,1.9-.89,1.91-1.31,0-.31-.58-.36-1.2-.31.1-.09.21-.18.31-.28,1-.97,1.96-2.67,1.71-2.99-.25-.31-1.87.65-2.87,1.62-.14.14-.28.28-.4.43.07-.71.04-1.41-.27-1.41-.4,0-1.09,1.19-1.24,2.04,0,.02,0,.03,0,.05-.11-.29-.22-.54-.33-.67-.12-.18-.57-.29-1.07-.34.13-.05.27-.12.41-.22.61-.41,1.27-1.45,1.13-1.84-.11-.28-.62-.13-1.12.12.06-.11.11-.23.16-.36.49-1.22.66-3.09.33-3.29-.33-.2-1.34,1.22-1.82,2.44-.05.12-.09.24-.13.36-.2-.6-.46-1.11-.69-1.01-.33.13-.48,1.45-.29,2.27.03.14.07.28.11.4-.36-.42-.71-.76-.89-.78h-.03s0,0-.01,0c-.11.03-.31.2-.53.42.04-.07.07-.15.1-.23.21-.59.22-1.59,0-1.73-.16-.1-.41.28-.61.72,0-.1-.02-.2-.04-.3-.15-1-.73-2.2-.99-2.13-.26.07-.34,1.49-.18,2.48.03.15.05.28.09.41-.36-.27-.75-.48-.87-.27-.14.27.25,1.13.65,1.51.12.1.23.18.35.24-.47-.04-.89.01-.82.25.26.94,1.77,1.77,1.99,1.7.15-.05.6-.93.84-1.82.13.62.39,1.27.64,1.77-.43-.5-.88-.87-.96-.55-.32,1.22.66,3.16.91,3.29.13.07.63,0,1.16-.21-.26.93-.34,1.85-.21,1.98.13.12,1.19.23,2.22.06-.51.61-.85,1.31-.85,1.44,0,.24,1.14,1.77,2.2,1.74.24,0,.08-.59-.17-1.14.25.28.57.57.92.77-.67.4-1.16,1.16-1.13,1.33.03.22,1.19,1.41,2.3,1.49.25.02.12-.37-.13-.79.1.09.23.19.38.27.52.31,1.46.49,1.64.3.13-.14-.19-.44-.58-.72.1.01.19.02.29.02.97.02,2.2-.32,2.18-.59M61.46,51.4c-.23-.17-.77-.26-1.27-.25.42-.08.95-.25,1.41-.57-.07.26-.11.54-.14.82"/>
    <path class="st1" d="M63.52,61.59h0c.72-.45,1.86-.79,2.02-.53.16.25-.56,1.2-1.28,1.65-.08.05-.15.09-.22.13.42.08.81.22.8.42-.03.28-.81.56-1.35.51-.14-.01-.27-.04-.39-.07.38.3.66.61.49.7-.39.2-.96.12-1.45-.03,0,0,0,0,0,0,.28.08.53.21.69.41.11.14-.21.29-.6.39.5.02,1.1.15,1.37.48.12.15-.28.33-.74.46.13,0,.26.03.4.07.48.14,1.06.65.99.9-.06.19-.48.16-.9.08.06.08.12.17.18.27.39.68.65,1.75.42,1.88-.24.14-1.08-.56-1.46-1.25-.03-.07-.07-.14-.11-.21-.09.39-.23.75-.42.72-.25-.03-.48-.77-.42-1.27.02-.13.04-.25.08-.35-.29.34-.58.59-.65.42-.19-.41-.07-.98.1-1.44-.25.31-.51.54-.58.38-.19-.4-.12-.95.03-1.38-.39-.05-.69-.13-.73-.19-.05-.06,0-.3.12-.6-.49-.14-.99-.41-1.28-.71-.11-.12.24-.24.65-.29,0,0,0,0,0,0-.46-.65-.83-1.69-.61-1.85.22-.16,1.13.46,1.59,1.11.01.01.03.04.04.06.16-.47.42-.86.53-.67.15.24.25.53.32.82.08-.4.23-.8.48-1.02.16-.14.37.29.52.79,0-.14.02-.28.06-.43.14-.53.66-1.19.93-1.12.21.06.2.53.12.98.09-.07.18-.14.29-.2"/>
    <path class="st1" d="M18.97,66.31h0c-1.33,1.93-3.83,2.58-5.89,1.63.07-.12.14-.23.21-.34.98-1.42,2.59-2.15,4.19-2.06-1.82-.51-3.21-2.03-3.56-3.91.14-.01.29-.02.43-.03,1.92-.01,3.61,1.05,4.46,2.64-.36-1.23-.03-2.59.9-3.5.06.08.12.16.18.24.96,1.38.8,3.19-.31,4.37,0,.01-.01.01-.02.02-.19.23-.38.59-.38.59-.06.12-.14.23-.21.35"/>
    <path class="st1" d="M17.61,82.91h0c-.08.05-.15.11-.24.18-1.32-1.97-2.09-4.34-2.09-6.89s.78-4.94,2.11-6.91c-1.43,3.25-1.19,7.2.73,11.35.05.09.07.16.09.19.08.21.45,1.28-.59,2.07"/>
    <path class="st1" d="M26.39,76.33h0c-.19-.5-.19-.99,0-1.47.78,1.67,1.64,2.63,2.49,3.44-.28-.07-.46-.15-.58-.2l-.11-.04c-.79-.29-1.52-.98-1.8-1.73"/>
    <path class="st1" d="M24.27,57.51c-.19.35-.42.69-.67,1.01.49.99,1.09,2.61.72,4.15-.23.93-.55,1.68-.83,2.33-.36.84-.67,1.56-.68,2.45.01.17.12,1.83,1.77,1.83h.69c-.26-2.6.93-4.1,1.03-6.26.09-1.97-1.22-4.42-2.03-5.5"/>
    <path class="st1" d="M50.86,78.11h0c-.12.05-.3.13-.58.2.85-.82,1.7-1.77,2.49-3.44.2.47.2.96.01,1.47-.29.75-1.02,1.45-1.81,1.73l-.11.04Z"/>
    <path class="st1" d="M33.67,87.35l-.92-.8s-.03-.03-.07-.06l-2.15-1.95c.2-.1.42-.16.67-.16.82,0,1.49.67,1.49,1.49,0,.14-.02.28-.06.4,0,0,1.92.9,3.51-.6h0c.06-.33.09-.66.09-1.01,0-3.11-2.52-5.57-5.63-5.63-1.69-.03-2.38-.4-2.58-.47-1.47-.53-2.94-2.35-2-4.12.92-1.72,1.21-3.39,1.17-4.65h-2.61c-2.22,0-2.3-2.35-2.3-2.35,0-1.72,1.02-2.81,1.52-4.9.38-1.58-.42-3.33-.83-4.09,1.03-1.16,1.66-2.7,1.66-4.37,0-1.43-.45-2.75-1.23-3.83l-2.92,3.97c-.31.5-.23,1.11-.04,1.63-.63.02-1.27.16-1.65.66l-2.81,3.83c.65.21,1.34.33,2.06.33,1.45,0,2.79-.47,3.88-1.27.33,1.49.36,3.57-3.02,8.3-4.05,5.66-.45,12.33-.21,12.94.25.61.37,1.82-.77,2.68-1.13.87-4.29,2.81-4.29,2.81,0,0,2.74,2.46,6.8,1.85,1.83-.28,3.35-.97,4.9-1.32.54-.15,1.11-.22,1.7-.22,1.91,0,3.62.82,4.81,2.12h6.6c.49,0,.88-.39.88-.88,0-.13-.03-.24-.07-.35h-5.59Z"/>
    <path class="st1" d="M33.82,86.97s-.08-.07-.11-.09c1.62.08,2.65-.93,2.77-1.05.73.32,2.32,1.05,2.32,1.05l.03.02s.08.04.12.07h-5.14Z"/>
    <path class="st1" d="M42.98,81.93h0c-.19.39-.35.8-.46,1.23-.96.17-1.94.27-2.95.27s-2-.09-2.96-.27c-.11-.42-.25-.83-.45-1.22,1.09.25,2.22.38,3.38.38s2.34-.14,3.43-.39"/>
    <path class="st1" d="M54.87,57.51c-.8,1.08-2.12,3.52-2.03,5.5.1,2.15,1.29,3.66,1.03,6.26h.69c1.65,0,1.77-1.66,1.77-1.83,0-.89-.32-1.61-.68-2.45-.28-.65-.61-1.4-.83-2.33-.37-1.54.23-3.16.72-4.15-.25-.32-.48-.65-.67-1.01"/>
    <path class="st1" d="M61.02,80.65c-.04.09-.07.16-.09.19-.08.21-.44,1.28.6,2.07.07.05.15.11.24.18,1.32-1.97,2.09-4.34,2.09-6.89s-.78-4.94-2.12-6.91c1.44,3.25,1.2,7.2-.73,11.35"/>
    <path class="st1" d="M60.45,80.65c.25-.62,3.85-7.28-.21-12.94-3.38-4.73-3.36-6.81-3.02-8.3,1.09.8,2.43,1.27,3.88,1.27.72,0,1.42-.12,2.06-.33l-2.81-3.83c-.38-.5-1.01-.64-1.65-.66.19-.52.27-1.13-.04-1.63l-2.92-3.97c-.77,1.08-1.23,2.4-1.23,3.83,0,1.68.62,3.21,1.66,4.37-.41.76-1.22,2.51-.83,4.09.5,2.09,1.51,3.18,1.52,4.9,0,0-.08,2.35-2.3,2.35h-2.61c-.03,1.26.26,2.93,1.17,4.65.94,1.77-.53,3.58-2,4.12-.2.07-.89.44-2.58.47-3.11.06-5.63,2.52-5.63,5.63,0,.34.03.68.09,1.01,0,0,0,0,0,0,1.59,1.49,3.51.6,3.51.6-.03-.12-.06-.26-.06-.41,0-.82.67-1.49,1.49-1.49.24,0,.47.06.67.16l-2.15,1.95s-.07.06-.07.06l-.92.8h-5.6c-.05.11-.07.22-.07.35,0,.48.39.88.88.88h6.6c1.19-1.3,2.91-2.12,4.81-2.12.59,0,1.16.08,1.7.22,1.54.35,3.07,1.04,4.89,1.32,4.07.62,6.8-1.85,6.8-1.85,0,0-3.15-1.94-4.29-2.81-1.13-.86-1.01-2.07-.77-2.68"/>
    <path class="st1" d="M40.3,86.9l.04-.02s1.6-.72,2.33-1.05c.12.12,1.16,1.13,2.77,1.05-.03.01-.11.09-.11.09h-5.14s.07-.05.11-.07"/>
    <path class="st1" d="M40.27,59.34c-.41-.12-.93-.19-1.81-.12-.93.07-1.2.63-1.22.86-.02.22-.1,1.06.78.9.95-.17,1.61.08,1.61.08,0,0,.18.07.22.12.1.11.03.25-.11.2,0,0-.08-.04-.2-.09-.27-.12-.98-.22-1.6-.07-.62.15-1.74.93-2.05,2.29-.32,1.36.89,1.01,1.58,1.17,1.47.32,2.29,1.97,2.45,2.21.16.23.84,1.21,1.65.8.81-.42.67-1.16.54-1.94-.13-.78.13-2.07.26-2.78.65-2.99-1.95-3.59-2.11-3.63M39.55,64.15c-.58,0-1.06-.48-1.06-1.06s.47-1.06,1.06-1.06,1.06.48,1.06,1.06-.47,1.06-1.06,1.06"/>
    <path class="st1" d="M47.72,72.74l-.74-.97s.02-.01.03-.02c.05-.05.1-.09.15-.14,0,0,0,0,0,0,.17-.16.33-.32.5-.48h0s.09-.1.13-.14c.01-.01.03-.03.04-.04.05-.04.08-.09.12-.13.02-.02.03-.04.05-.06.03-.04.07-.08.11-.13.01-.02.03-.04.05-.06.04-.04.08-.08.11-.13.01-.02.03-.04.04-.06.04-.04.07-.09.11-.14,0,0,.01-.02.02-.03.08-.11.17-.23.25-.34,0,0,0-.01.01-.01.03-.04.06-.09.09-.13.02-.02.03-.05.05-.08.03-.04.05-.08.08-.13.02-.03.04-.06.06-.08.03-.04.06-.08.08-.12.02-.03.04-.06.06-.09.02-.04.05-.08.07-.12.02-.03.04-.06.06-.1.02-.04.05-.08.07-.12.02-.03.04-.07.06-.1.02-.04.04-.08.06-.12.03-.06.06-.11.09-.17.02-.05.05-.1.07-.15.02-.04.04-.08.06-.12.02-.04.03-.08.05-.11.02-.04.04-.08.06-.12.01-.04.03-.07.05-.11.02-.04.03-.08.05-.12.02-.03.03-.08.05-.11.02-.04.03-.08.05-.13.01-.03.03-.07.04-.11.02-.05.04-.09.05-.14.01-.03.03-.07.04-.1.02-.06.04-.12.06-.19.01-.03.02-.06.03-.09.02-.07.04-.14.07-.21.01-.03.02-.06.03-.1.01-.05.03-.1.05-.15,0-.03.02-.07.03-.1.01-.05.03-.1.04-.15,0-.04.02-.07.03-.11.01-.05.03-.1.04-.15,0-.03.01-.07.02-.1.01-.06.02-.11.04-.16,0-.03.01-.07.02-.1.01-.06.02-.12.03-.19,0-.02,0-.05.01-.07.02-.09.03-.17.04-.26,0-.02,0-.05,0-.07,0-.07.02-.13.03-.2,0-.04,0-.07,0-.1.01-.06.02-.11.02-.17,0-.03,0-.07,0-.1,0-.06.01-.11.01-.17,0-.04,0-.07,0-.11,0-.06,0-.11,0-.17,0-.03.01-.07.01-.1,0-.06,0-.12,0-.18,0-.03,0-.06,0-.09,0-.09,0-.18,0-.27s0-.18,0-.27c0-.03,0-.06,0-.09,0-.06,0-.12,0-.18,0-.03,0-.07-.01-.1,0-.06,0-.11,0-.17,0-.04,0-.07,0-.11,0-.05,0-.11-.01-.16,0-.03,0-.07,0-.11,0-.06-.01-.11-.02-.17,0-.03,0-.06,0-.1,0-.06-.02-.13-.03-.19,0-.02,0-.04,0-.07-.01-.09-.03-.17-.04-.26,0-.03,0-.05-.01-.08-.01-.06-.02-.12-.03-.19,0-.03-.01-.06-.02-.1-.01-.05-.02-.1-.04-.15,0-.04-.01-.07-.02-.11-.01-.05-.03-.1-.04-.15,0-.03-.02-.07-.03-.1-.01-.05-.03-.1-.04-.15-.01-.03-.02-.07-.03-.1-.02-.05-.03-.1-.05-.15-.01-.03-.02-.06-.03-.09-.02-.07-.05-.14-.07-.21-.01-.03-.02-.06-.03-.08-.02-.06-.04-.13-.07-.19-.01-.04-.02-.07-.04-.1-.02-.05-.03-.09-.05-.14-.01-.04-.03-.08-.04-.11-.02-.04-.03-.09-.05-.13-.01-.03-.03-.07-.05-.11-.02-.04-.03-.08-.05-.12-.02-.04-.04-.08-.05-.11-.02-.04-.04-.08-.06-.12-.02-.04-.03-.08-.05-.11-.02-.04-.04-.08-.06-.12-.02-.04-.04-.08-.06-.12-.03-.07-.07-.13-.11-.2-.02-.04-.04-.08-.06-.12-.02-.04-.04-.07-.06-.1-.02-.04-.05-.08-.07-.12-.02-.03-.04-.07-.06-.1-.02-.04-.05-.08-.07-.12-.02-.03-.04-.06-.06-.1-.02-.04-.05-.08-.08-.12-.02-.03-.04-.06-.06-.09-.03-.04-.06-.08-.08-.12l-.05-.07s-.06-.09-.09-.13c0,0,0-.01-.01-.02-.08-.11-.17-.22-.25-.33,0,0-.01-.02-.02-.03-.04-.05-.07-.09-.11-.14-.01-.02-.03-.04-.04-.06-.03-.04-.07-.09-.11-.13-.02-.02-.03-.04-.05-.06-.04-.05-.08-.09-.11-.13-.02-.02-.03-.04-.05-.06-.04-.04-.08-.08-.12-.13,0-.01-.02-.03-.04-.05-.04-.04-.08-.09-.13-.14h0c-.16-.17-.32-.33-.49-.48,0,0,0,0,0,0-.05-.05-.1-.09-.15-.14,0-.01-.02-.02-.03-.03-.05-.04-.1-.09-.15-.13-.01-.01-.02-.02-.03-.03-.05-.04-.1-.08-.15-.12,0,0,0,0,0,0l1.19-1.56.55,1.18.5-2.05.5-2.05-1.84,1.03-1.84,1.03,1.28.21-1.19,1.58c-.09-.06-.19-.12-.28-.18,0,0,0,0-.01-.01-.07-.04-.13-.08-.19-.12,0,0-.01,0-.02,0-.47-.28-.96-.52-1.47-.73h0c-.59-.24-1.2-.43-1.83-.57-.61-.13-1.25-.22-1.89-.25v-1.76l1.15.61-.84-1.94-.84-1.94-1.68,3.87,1.15-.61v1.77c-.64.03-1.27.11-1.88.25-.63.14-1.24.33-1.83.57h0c-.51.21-1,.45-1.48.74,0,0,0,0-.01,0-.06.04-.13.08-.19.12,0,0,0,0-.01.01-.06.04-.12.08-.19.12l-1.15-1.51,1.28-.21-1.84-1.03-1.84-1.03.5,2.05.5,2.05.55-1.18,1.13,1.49s-.04.04-.07.06c0,0-.02.01-.02.02-.05.04-.1.08-.16.13-.01,0-.02.02-.03.03-.05.04-.1.08-.15.13-.01,0-.02.02-.03.03-.05.04-.1.09-.15.14,0,0,0,0,0,0-.17.16-.34.32-.5.49h0s-.09.1-.13.14c-.01.02-.03.03-.04.04-.05.04-.08.09-.12.13-.02.02-.03.04-.05.06-.03.04-.07.08-.11.13-.02.02-.03.04-.05.06-.04.04-.08.09-.11.13-.02.02-.03.04-.05.06-.03.05-.07.09-.11.14,0,0-.01.02-.02.03-.09.11-.17.22-.25.34,0,0,0,.01-.01.02-.03.04-.06.09-.09.13-.02.02-.03.05-.05.07-.02.04-.05.08-.08.12-.02.03-.04.06-.06.09-.02.04-.05.08-.08.12-.02.03-.04.06-.06.09-.03.04-.05.08-.07.12-.02.03-.04.06-.06.1-.02.04-.05.08-.07.12-.02.03-.04.07-.06.1-.02.04-.04.08-.06.12-.04.07-.07.13-.11.2-.02.04-.04.08-.06.12-.02.04-.04.08-.06.12-.02.04-.03.07-.05.11-.02.04-.04.08-.06.12-.02.04-.03.08-.05.11-.02.04-.03.08-.06.12-.02.04-.03.08-.05.11-.02.04-.04.09-.05.13-.02.03-.03.07-.05.11-.02.04-.03.09-.05.14-.01.04-.03.07-.04.1-.02.06-.04.12-.06.19-.01.03-.02.05-.03.09-.02.07-.05.14-.07.21,0,.03-.02.06-.03.09-.01.05-.03.11-.04.16-.01.03-.02.07-.03.1-.01.05-.02.1-.04.15-.01.03-.02.07-.03.1-.01.05-.02.1-.03.15,0,.03-.02.07-.03.11-.01.05-.02.1-.03.15,0,.04-.02.07-.02.1-.01.07-.02.13-.03.19,0,.03-.01.05-.02.07-.01.09-.03.17-.04.26,0,.02,0,.04-.01.07,0,.06-.02.13-.02.19,0,.03,0,.07-.01.1,0,.06-.02.11-.02.17,0,.03,0,.07,0,.11,0,.06-.01.11-.01.16,0,.03,0,.07,0,.11,0,.06-.01.11-.01.17,0,.03,0,.07,0,.1,0,.06,0,.12,0,.18v.09c0,.09,0,.18,0,.27s0,.18,0,.27v.09c0,.06,0,.12,0,.18,0,.03,0,.07,0,.1,0,.05,0,.11.01.17,0,.03,0,.07,0,.11,0,.06,0,.11.01.17,0,.04,0,.07,0,.1,0,.06.01.11.02.17,0,.03,0,.06.01.1,0,.07.02.13.02.2,0,.02,0,.04.01.07.01.09.03.17.04.26,0,.03,0,.04.02.07.01.06.02.12.03.19,0,.04.01.07.02.1.01.05.02.1.03.16,0,.03.02.07.03.1.01.05.02.1.03.15,0,.03.02.07.03.11.02.05.02.1.04.15.01.03.02.07.03.1.01.05.03.1.04.16.01.03.02.06.03.09.02.07.05.14.07.22,0,.03.02.05.03.08.02.06.04.12.06.19.02.03.03.07.04.1.01.05.03.09.05.14.02.04.03.08.05.11.01.04.03.09.05.13.02.04.03.08.05.11.02.04.04.08.06.12s.03.08.05.11c.02.04.04.08.06.12.02.03.03.07.05.11.02.04.04.08.06.12.02.03.04.07.06.1.04.07.07.14.11.21.02.04.05.08.06.12.02.03.04.07.06.1.02.04.05.08.07.12.02.03.04.07.06.1.02.04.05.08.07.12.02.03.04.06.06.1.03.04.05.08.08.12.02.03.04.06.06.09.03.04.06.08.08.12.02.03.03.05.05.08.03.04.06.09.09.13,0,0,.01.01.02.02.08.11.16.22.24.33.01,0,.02.02.03.03.03.05.07.09.11.14.01.02.03.04.05.06.03.04.07.09.1.13.02.02.04.04.05.06.04.04.08.09.11.13.02.02.03.04.05.06.04.04.08.09.12.13,0,.01.02.03.04.04.04.05.09.09.13.14t0,0c.16.16.32.32.49.48,0,0,0,0,0,0,.05.05.1.09.15.14,0,0,.02.02.03.03.03.03.06.05.08.07l-.68.9-1.29-.19-2.09,2.75,1.95.21.74,1.83,2.09-2.75-.54-1.2.67-.88c.19.13.37.25.56.37,0,0,0,.01.01.01.06.04.13.08.19.12,0,0,.01,0,.01,0,.47.28.96.53,1.48.74h0c.59.24,1.2.43,1.83.57.61.14,1.24.22,1.88.25v1.32l-1.15.63v3.45l1.68-1.01,1.69,1.01v-3.45l-1.16-.63v-1.32c.65-.03,1.28-.12,1.9-.25.08-.01.15-.03.23-.05.55-.13,1.08-.3,1.59-.51h0c.51-.21,1-.46,1.47-.74h.02c.06-.04.12-.08.19-.12,0,0,0,0,.01-.01.22-.14.44-.28.66-.44l.72.95-.54,1.2,2.09,2.75.74-1.83,1.95-.21-2.09-2.75-1.29.19ZM49.16,66.77h-3.12c.24-1.01.39-2.08.41-3.18h3.31c-.03,1.11-.24,2.18-.6,3.18M49,59.44c.41.99.66,2.05.74,3.17h-3.3c-.05-1.1-.22-2.17-.5-3.17h3.07ZM45.14,54.77l-.16.21h-1.25c-.44-.55-.91-1.05-1.42-1.5,1.02.29,1.97.73,2.83,1.29M44.47,58.46h-.78l.5-.66c.1.22.19.44.28.66M40.09,53.19c.82.45,1.58,1.05,2.25,1.78h-2.25v-1.78ZM40.09,55.96h3.05c.18.26.35.52.51.8l-1.3,1.71h-2.26v-2.5ZM39.01,53.2v1.78h-2.24c.67-.73,1.42-1.33,2.24-1.78M39.01,55.96v2.5h-1.13l-1.89-2.5h3.02ZM36.79,53.48c-.51.44-.99.95-1.42,1.5h-.12l-.51-.67c.65-.34,1.33-.62,2.05-.83M32.47,55.96h.15l1.21,1.61c-.13.29-.25.59-.36.9h-2.91c.51-.93,1.15-1.77,1.9-2.5M30.1,59.44h3.06c-.28,1-.45,2.06-.5,3.17h-3.3c.08-1.11.33-2.18.74-3.17M29.94,66.77c-.36-1-.57-2.07-.6-3.18h3.31c.02,1.1.16,2.17.41,3.18h-3.12ZM33.41,70.25h-1.35c-.68-.74-1.26-1.58-1.71-2.5h2.98c.19.59.42,1.16.68,1.7l-.61.8ZM33.68,71.67l.33-.44h1.06c.51.72,1.09,1.37,1.73,1.92-1.13-.32-2.17-.82-3.11-1.48M34.48,67.75h.82l-.55.72c-.09-.24-.19-.48-.27-.72M39.01,73.43c-.98-.53-1.86-1.28-2.61-2.2h2.61v2.2ZM39.01,70.25h-3.32c-.15-.23-.28-.46-.41-.7l1.36-1.8h2.37v2.5ZM40.09,73.44v-2.2h2.62c-.75.92-1.64,1.68-2.62,2.2M42.31,73.15c.64-.55,1.22-1.19,1.73-1.92h.13l.63.84c-.77.46-1.61.83-2.49,1.08M44.92,66.77h-.75l-1.58-2.09c-.04.37-.05.73,0,.99v.04c.13.77.3,1.82-.79,2.38l1.62,2.14s0,0-.01.01h-3.32v-2.48c-.23-.21-.41-.44-.53-.62-.02-.03-.05-.08-.09-.14-.09-.15-.24-.41-.46-.7v.47h-1.62l.91-1.2c-.26-.2-.56-.37-.9-.44-.03,0-.07-.01-.1-.02l-1.25,1.66h-1.86c-.27-1.01-.41-2.08-.43-3.18h1.67c0-.06.02-.11.03-.17.07-.29.17-.56.29-.81h-1.98c.06-1.11.24-2.17.54-3.17h.95l1.47,1.94c.11-.09.22-.17.32-.24-.34-.38-.29-.93-.26-1.11.04-.4.44-1.17,1.64-1.27.24-.02.47-.03.69-.03.49,0,.89.05,1.29.16h.01c.75.2,1.48.62,1.97,1.29l.56-.74h1.85c.3.99.48,2.06.54,3.17h-2.42c-.02.15-.04.3-.08.45l-.03.16c-.02.11-.05.23-.06.37h2.6c-.02,1.11-.17,2.18-.44,3.18M44.92,56.83l.66-.87h1.05c.76.73,1.4,1.57,1.9,2.5h-2.91c-.2-.57-.44-1.11-.71-1.63M46.8,70.25l-1.31-1.73c.1-.25.19-.51.28-.77h2.98c-.45.92-1.02,1.76-1.71,2.5h-.24Z"/>
    <path class="st1" d="M26.44,39.78s0,0,0,0l.19.36c.61-.3,1.35-.07,1.68.52h0s1.16,2.1,1.16,2.1l-1.1.61.51.95c3.26-1.45,6.86-2.27,10.65-2.27s7.4.81,10.65,2.27l.52-.97-1.11-.58,1.12-2.14h0s0,0,0,0h0c.33-.63,1.11-.87,1.74-.54,0,0,0,0,0,0l.34-.62s0,0,0,0l.5-.93-2.36-1.14-.41.96c-.56-.24-1.13-.46-1.7-.67l.35-.99-5.07-1.29-.17,1.04c-.62-.09-1.25-.17-1.89-.23l.1-1.05h-5.23l.1,1.05c-.62.06-1.24.13-1.85.23l-.17-1.04-5.07,1.29.35,1c-.58.2-1.15.42-1.7.67l-.42-.97-2.39,1.16.66,1.23ZM44.7,38.66h0s0-.01,0-.01c.17-.68.86-1.1,1.55-.93.69.17,1.11.86.95,1.55h0s0,0,0,0l-.62,2.54-2.5-.61.62-2.54ZM38.25,38.14c0-.71.58-1.28,1.29-1.28s1.28.57,1.29,1.28h0v2.74h-2.57v-2.74ZM32.73,37.7c.69-.18,1.38.22,1.57.9h0s0,0,0,0l.68,2.56-2.48.66-.68-2.56h0c-.18-.69.22-1.39.91-1.58"/>
    <path class="st1" d="M34.85,34.51l-.23-1.41c-5.49,1.39-.04.01-5.45,1.38l.47,1.35c5.22-1.33,0,0,5.21-1.32"/>
    <path class="st1" d="M27.8,36.56l-.57-1.31c-2.56,1.24,0,0-2.56,1.24l.68,1.26c2.45-1.19,0,0,2.45-1.19"/>
    <polygon class="st1" points="42.22 34.29 42.36 32.84 36.74 32.84 36.85 34.29 42.22 34.29"/>
    <path class="st1" d="M49.94,34.5c-5.44-1.39,0,0-5.44-1.39l-.24,1.42c5.21,1.33,0,0,5.2,1.33l.47-1.37Z"/>
    <path class="st1" d="M54.39,36.49c-2.53-1.23,0,0-2.52-1.23l-.57,1.32c2.43,1.18,0,0,2.42,1.18l.68-1.27Z"/>
    <path class="st1" d="M54.59,45.31h-4.95c-3.09-1.37-6.51-2.13-10.11-2.13s-7.02.76-10.11,2.13h-4.88v5.76c.46.96.69,1.99.66,3.02-.04,1.28-.23,1.97-.65,2.93.3.38.69.97,1.06,1.67v-12.27h27.87v12.34c.38-.74.79-1.35,1.1-1.74-.42-.95-.61-1.64-.65-2.93-.03-1.03.19-2.06.66-3.02v-5.76ZM32.64,45.31c2.18-.66,4.5-1.01,6.9-1.01s4.71.36,6.89,1.01h-13.79Z"/>
  </g>
</svg>