<?xml version="1.0" encoding="UTF-8"?>
<svg id="Camada_1" xmlns="http://www.w3.org/2000/svg" version="1.1" xmlns:xlink="http://www.w3.org/1999/xlink" viewBox="0 0 144.18 175.1">
  <!-- Generator: Adobe Illustrator 30.0.0, SVG Export Plug-In . SVG Version: 2.1.1 Build 123)  -->
  <defs>
    <style>
      .st0 {
        clip-path: url(#clippath-21);
      }

      .st1 {
        fill: url(#Gradiente_sem_nome_21);
      }

      .st2 {
        clip-path: url(#clippath-6);
      }

      .st3 {
        clip-path: url(#clippath-7);
      }

      .st4 {
        clip-path: url(#clippath-17);
      }

      .st5 {
        fill: url(#Gradiente_sem_nome_5);
      }

      .st6 {
        fill: #273759;
      }

      .st7 {
        clip-path: url(#clippath-15);
      }

      .st8 {
        fill: url(#Gradiente_sem_nome_9);
      }

      .st9 {
        clip-path: url(#clippath-18);
      }

      .st10 {
        clip-path: url(#clippath-4);
      }

      .st11 {
        clip-path: url(#clippath-22);
      }

      .st12 {
        clip-path: url(#clippath-23);
      }

      .st13 {
        fill: url(#Gradiente_sem_nome_26);
      }

      .st14 {
        clip-path: url(#clippath-9);
      }

      .st15 {
        clip-path: url(#clippath-10);
      }

      .st16 {
        fill: url(#Gradiente_sem_nome_2);
      }

      .st17 {
        fill: url(#Gradiente_sem_nome_11);
      }

      .st18 {
        clip-path: url(#clippath-25);
      }

      .st19 {
        fill: url(#Gradiente_sem_nome_23);
      }

      .st20 {
        fill: url(#Gradiente_sem_nome_17);
      }

      .st21 {
        clip-path: url(#clippath-11);
      }

      .st22 {
        fill: url(#Gradiente_sem_nome_25);
      }

      .st23 {
        fill: none;
      }

      .st24 {
        fill: url(#Gradiente_sem_nome);
      }

      .st25 {
        fill: url(#Gradiente_sem_nome_19);
      }

      .st26 {
        fill: url(#Gradiente_sem_nome_13);
      }

      .st27 {
        clip-path: url(#clippath-1);
      }

      .st28 {
        fill: url(#Gradiente_sem_nome_12);
      }

      .st29 {
        fill: url(#Gradiente_sem_nome_15);
      }

      .st30 {
        clip-path: url(#clippath-5);
      }

      .st31 {
        clip-path: url(#clippath-20);
      }

      .st32 {
        clip-path: url(#clippath-8);
      }

      .st33 {
        fill: url(#Gradiente_sem_nome_22);
      }

      .st34 {
        clip-path: url(#clippath-3);
      }

      .st35 {
        clip-path: url(#clippath-26);
      }

      .st36 {
        fill: url(#Gradiente_sem_nome_24);
      }

      .st37 {
        clip-path: url(#clippath-12);
      }

      .st38 {
        clip-path: url(#clippath-14);
      }

      .st39 {
        fill: url(#Gradiente_sem_nome_7);
      }

      .st40 {
        clip-path: url(#clippath-19);
      }

      .st41 {
        fill: url(#Gradiente_sem_nome_4);
      }

      .st42 {
        fill: url(#Gradiente_sem_nome_16);
      }

      .st43 {
        fill: url(#Gradiente_sem_nome_6);
      }

      .st44 {
        fill: url(#Gradiente_sem_nome_10);
      }

      .st45 {
        fill: url(#Gradiente_sem_nome_20);
      }

      .st46 {
        clip-path: url(#clippath-16);
      }

      .st47 {
        clip-path: url(#clippath-2);
      }

      .st48 {
        fill: url(#Gradiente_sem_nome_3);
      }

      .st49 {
        clip-path: url(#clippath-13);
      }

      .st50 {
        fill: url(#Gradiente_sem_nome_8);
      }

      .st51 {
        fill: url(#Gradiente_sem_nome_18);
      }

      .st52 {
        clip-path: url(#clippath-24);
      }

      .st53 {
        clip-path: url(#clippath);
      }

      .st54 {
        fill: url(#Gradiente_sem_nome_14);
      }
    </style>
    <clipPath id="clippath">
      <rect class="st23" width="144.18" height="175.1"/>
    </clipPath>
    <clipPath id="clippath-1">
      <path class="st23" d="M56.06,80.1c-.76.17-1.5.4-2.28.65-.1.03-.21.07-.31.1,1.62.6,3.38.93,5.21.93h4.21c-1.34-1.23-3.1-1.93-4.93-1.93-.64,0-1.28.08-1.9.25"/>
    </clipPath>
    <linearGradient id="Gradiente_sem_nome" data-name="Gradiente sem nome" x1="0" y1="175.1" x2="1" y2="175.1" gradientTransform="translate(53.47 1729.06) scale(9.41 -9.41)" gradientUnits="userSpaceOnUse">
      <stop offset="0" stop-color="#41648c"/>
      <stop offset=".22" stop-color="#527da9"/>
      <stop offset=".58" stop-color="#6aa2d2"/>
      <stop offset=".76" stop-color="#74b1e3"/>
      <stop offset="1" stop-color="#74b1e3"/>
    </linearGradient>
    <clipPath id="clippath-2">
      <path class="st23" d="M83.4,81.79h4.2c1.83,0,3.58-.33,5.2-.93-.1-.03-.2-.07-.31-.1-.78-.25-1.51-.48-2.28-.65-.62-.17-1.26-.25-1.89-.25-1.82,0-3.59.7-4.92,1.93"/>
    </clipPath>
    <linearGradient id="Gradiente_sem_nome_2" data-name="Gradiente sem nome 2" x1="0" y1="175.1" x2="1" y2="175.1" gradientTransform="translate(83.4 1728.46) scale(9.41 -9.41)" gradientUnits="userSpaceOnUse">
      <stop offset="0" stop-color="#41648c"/>
      <stop offset=".22" stop-color="#527da9"/>
      <stop offset=".58" stop-color="#6aa2d2"/>
      <stop offset=".76" stop-color="#74b1e3"/>
      <stop offset="1" stop-color="#74b1e3"/>
    </linearGradient>
    <clipPath id="clippath-3">
      <path class="st23" d="M50.93,30.9c-.32-.67-.77-1.31-1.33-1.86-.14-.14-.28-.26-.43-.38-.86,1.24-1.24,2.72-1.16,4.17-.53-.67-1.2-1.24-1.98-1.7-.17-.1-.35-.2-.54-.28-.7,1.91-.53,3.99.38,5.72-1.38-.98-3.1-1.53-4.92-1.45-.23,0-.45.03-.68.06.47,2.14,1.81,3.94,3.61,5.03-1.96-.43-4.07-.04-5.79,1.26-.16.12-.32.25-.47.39,1.27,1.18,2.9,1.83,4.57,1.89-1.23.53-2.26,1.49-2.89,2.78-.07.15-.14.3-.19.46,2.64.75,5.52-.48,6.75-3.04.07-.15.14-.3.2-.45-.36-.11-.73-.17-1.1-.2.61-.23,1.19-.55,1.73-.96.16-.12.32-.25.47-.39-.33-.31-.68-.57-1.05-.81.7.17,1.44.25,2.2.21.23-.01.45-.03.67-.06-.17-.77-.45-1.49-.82-2.15.13.09.26.17.4.25.18.11.36.2.54.29.36-.98.49-2,.41-3,.14.17.3.34.46.49.14.14.28.26.43.38.59-.85.95-1.8,1.1-2.78.05.1.11.2.17.31.09.15.19.3.29.44,2.22-1.88,2.84-5.15,1.32-7.76-.1-.15-.19-.3-.29-.44-1.11.93-1.81,2.22-2.06,3.58"/>
    </clipPath>
    <linearGradient id="Gradiente_sem_nome_3" data-name="Gradiente sem nome 3" x1="0" y1="175.09" x2="1" y2="175.09" gradientTransform="translate(37.62 2925.19) scale(16.49 -16.49)" gradientUnits="userSpaceOnUse">
      <stop offset="0" stop-color="#41648c"/>
      <stop offset=".22" stop-color="#527da9"/>
      <stop offset=".58" stop-color="#6aa2d2"/>
      <stop offset=".76" stop-color="#74b1e3"/>
      <stop offset="1" stop-color="#74b1e3"/>
    </linearGradient>
    <clipPath id="clippath-4">
      <path class="st23" d="M99.83,35.75c-.08.32-.13.66-.17.99-.27-.21-.93-.31-1.54-.31.5-.09,1.16-.31,1.7-.68M98.31,30.33c-.06.15-.11.29-.15.43-.24-.72-.56-1.34-.83-1.22-.4.16-.58,1.76-.35,2.75.04.17.08.33.14.48-.43-.51-.86-.92-1.08-.94h-.04s0,0-.01,0c-.14.03-.38.25-.64.51.04-.09.08-.18.12-.28.25-.72.27-1.93-.01-2.1-.2-.13-.49.34-.74.87-.01-.12-.03-.24-.05-.36-.19-1.21-.88-2.66-1.2-2.58-.31.09-.41,1.8-.22,3.01.03.18.06.34.11.5-.44-.33-.91-.58-1.05-.33-.17.33.3,1.37.79,1.83.14.13.28.22.42.3-.57-.05-1.08.02-1,.31.32,1.13,2.14,2.15,2.41,2.06.18-.06.73-1.13,1.02-2.21.15.75.47,1.54.78,2.14-.52-.6-1.06-1.05-1.16-.66-.38,1.47.8,3.83,1.1,3.99.15.08.76,0,1.41-.26-.32,1.13-.42,2.24-.25,2.4.16.15,1.45.27,2.69.07-.62.74-1.03,1.58-1.03,1.74,0,.29,1.38,2.15,2.67,2.11.29,0,.09-.72-.2-1.38.3.34.69.69,1.11.93-.81.49-1.4,1.4-1.37,1.61.04.27,1.44,1.71,2.79,1.81.31.03.14-.45-.15-.96.12.11.28.23.46.33.62.37,1.77.59,1.98.36.15-.17-.23-.54-.7-.87.12.01.24.02.36.02,1.17.03,2.67-.39,2.64-.71-.03-.32-1.63-.71-2.81-.73-.17,0-.33,0-.49.01.39-.36.71-.78.49-.95-.28-.22-1.34.05-1.85.45-.17.13-.3.28-.4.42.07-.23.12-.47.13-.65.04-.24-.12-.72-.32-1.21.1.1.23.19.36.27.62.37,1.82.5,2.08.19.19-.23-.17-.62-.61-.96.12,0,.25,0,.38-.02,1.26-.11,2.95-.79,2.97-1.18.02-.38-1.65-.66-2.91-.55-.18.02-.36.04-.53.07.48-.49.89-1.03.68-1.21-.27-.23-1.46.22-2.08.76-.18.16-.33.32-.44.48.23-.68.33-1.3.03-1.23-.56.13-1.12.62-1.57,1.14.24-.46.44-.89.42-1.1,0-.19-.3-.4-.71-.59.75-.03,1.54-.21,2.12-.69.21-.18-.01-.46-.42-.73,0,0,.02,0,.03,0,.96-.18,2.31-1.08,2.32-1.59,0-.37-.7-.44-1.45-.37.12-.11.25-.22.37-.34,1.21-1.17,2.37-3.24,2.07-3.62-.3-.38-2.27.78-3.48,1.96-.17.17-.34.34-.49.52.08-.86.04-1.71-.32-1.71-.48,0-1.33,1.45-1.5,2.47,0,.02,0,.04-.01.06-.13-.35-.27-.65-.4-.81-.14-.22-.69-.35-1.29-.41.16-.06.33-.15.5-.26.74-.49,1.54-1.76,1.37-2.23-.13-.34-.75-.16-1.36.15.07-.13.13-.28.19-.43.59-1.48.8-3.74.4-3.98-.03-.01-.05-.02-.09-.02-.46,0-1.57,1.59-2.12,2.98"/>
    </clipPath>
    <linearGradient id="Gradiente_sem_nome_4" data-name="Gradiente sem nome 4" x1="0" y1="175.1" x2="1" y2="175.1" gradientTransform="translate(92.26 2979.04) scale(16.8 -16.8)" gradientUnits="userSpaceOnUse">
      <stop offset="0" stop-color="#41648c"/>
      <stop offset=".22" stop-color="#527da9"/>
      <stop offset=".58" stop-color="#6aa2d2"/>
      <stop offset=".76" stop-color="#74b1e3"/>
      <stop offset="1" stop-color="#74b1e3"/>
    </linearGradient>
    <clipPath id="clippath-5">
      <path class="st23" d="M100.54,49.52c-.05.18-.07.36-.07.53-.19-.6-.45-1.12-.64-.95-.31.27-.49.75-.59,1.24-.09-.35-.21-.71-.39-1-.14-.23-.45.24-.64.81-.02-.02-.03-.05-.05-.07-.56-.78-1.66-1.53-1.93-1.34-.27.2.18,1.46.74,2.24,0,0,0,0,0,0-.5.07-.92.21-.78.36.35.37.96.7,1.55.86-.14.37-.2.66-.15.73.05.07.41.17.88.23-.17.52-.27,1.18-.03,1.67.1.2.41-.08.71-.45-.21.55-.35,1.24-.12,1.74.1.2.44-.1.79-.51-.04.13-.08.27-.1.43-.08.61.2,1.5.5,1.54.22.03.4-.4.5-.88.04.08.09.17.13.25.47.83,1.49,1.68,1.77,1.51.28-.16-.04-1.46-.5-2.28-.07-.12-.14-.23-.22-.33.5.11,1.02.13,1.09-.09.09-.3-.61-.92-1.19-1.09-.17-.05-.33-.08-.49-.09.56-.15,1.05-.37.9-.55-.32-.4-1.06-.56-1.66-.58.48-.13.87-.3.73-.48-.19-.24-.49-.39-.83-.5,0,0,0,0,0,0,.6.19,1.29.28,1.76.04.21-.11-.13-.49-.59-.85.14.04.3.07.47.09.66.06,1.61-.28,1.64-.62.02-.24-.46-.41-.97-.51.09-.05.18-.1.27-.15.88-.55,1.75-1.69,1.56-2-.19-.31-1.56.1-2.44.65-.13.08-.24.16-.35.25.09-.55.1-1.12-.15-1.19-.02,0-.03,0-.05,0-.34,0-.92.75-1.08,1.36"/>
    </clipPath>
    <linearGradient id="Gradiente_sem_nome_5" data-name="Gradiente sem nome 5" x1="0" y1="175.1" x2="1" y2="175.1" gradientTransform="translate(96.15 1537.79) scale(8.48 -8.48)" gradientUnits="userSpaceOnUse">
      <stop offset="0" stop-color="#41648c"/>
      <stop offset=".22" stop-color="#527da9"/>
      <stop offset=".58" stop-color="#6aa2d2"/>
      <stop offset=".76" stop-color="#74b1e3"/>
      <stop offset="1" stop-color="#74b1e3"/>
    </linearGradient>
    <clipPath id="clippath-6">
      <path class="st23" d="M47.99,52.3c-1.03-1.92-3.07-3.21-5.4-3.19-.17,0-.35.02-.52.03.42,2.28,2.11,4.12,4.31,4.74-1.95-.11-3.9.77-5.08,2.49-.09.14-.18.28-.26.42,2.5,1.15,5.53.37,7.14-1.98.09-.14.18-.28.26-.42,0,0,.24-.44.46-.72.01-.02.02-.02.02-.03,1.34-1.43,1.54-3.62.38-5.3-.07-.1-.14-.2-.22-.29-1.13,1.11-1.53,2.75-1.09,4.24"/>
    </clipPath>
    <linearGradient id="Gradiente_sem_nome_6" data-name="Gradiente sem nome 6" x1="0" y1="175.07" x2="1" y2="175.07" gradientTransform="translate(41.04 1633.48) scale(9.03 -9.03)" gradientUnits="userSpaceOnUse">
      <stop offset="0" stop-color="#41648c"/>
      <stop offset=".22" stop-color="#527da9"/>
      <stop offset=".58" stop-color="#6aa2d2"/>
      <stop offset=".76" stop-color="#74b1e3"/>
      <stop offset="1" stop-color="#74b1e3"/>
    </linearGradient>
    <clipPath id="clippath-7">
      <path class="st23" d="M43.7,66.8c0,3.09.93,5.96,2.53,8.34.1-.08.2-.15.29-.22,1.26-.96.82-2.26.72-2.51-.02-.05-.05-.13-.11-.24-2.32-5.03-2.61-9.81-.88-13.75-1.62,2.39-2.56,5.27-2.56,8.37"/>
    </clipPath>
    <linearGradient id="Gradiente_sem_nome_7" data-name="Gradiente sem nome 7" x1="0" y1="175.1" x2="1" y2="175.1" gradientTransform="translate(43.7 714.96) scale(3.7 -3.7)" gradientUnits="userSpaceOnUse">
      <stop offset="0" stop-color="#41648c"/>
      <stop offset=".22" stop-color="#527da9"/>
      <stop offset=".58" stop-color="#6aa2d2"/>
      <stop offset=".76" stop-color="#74b1e3"/>
      <stop offset="1" stop-color="#74b1e3"/>
    </linearGradient>
    <clipPath id="clippath-8">
      <path class="st23" d="M57.17,66.96c.35.91,1.23,1.75,2.19,2.1l.14.05c.14.06.36.15.7.24-1.03-.99-2.07-2.15-3.01-4.17-.24.57-.25,1.17-.01,1.78"/>
    </clipPath>
    <linearGradient id="Gradiente_sem_nome_8" data-name="Gradiente sem nome 8" x1="0" y1="175.1" x2="1" y2="175.1" gradientTransform="translate(57 627.75) scale(3.2 -3.2)" gradientUnits="userSpaceOnUse">
      <stop offset="0" stop-color="#41648c"/>
      <stop offset=".22" stop-color="#527da9"/>
      <stop offset=".58" stop-color="#6aa2d2"/>
      <stop offset=".76" stop-color="#74b1e3"/>
      <stop offset="1" stop-color="#74b1e3"/>
    </linearGradient>
    <clipPath id="clippath-9">
      <path class="st23" d="M53.79,45.37c.59,1.2,1.31,3.16.87,5.02-.27,1.13-.66,2.03-1,2.82-.44,1.01-.82,1.9-.82,2.97,0,.2.15,2.21,2.15,2.21h.84c-.31-3.15,1.13-4.97,1.25-7.58.11-2.39-1.48-5.36-2.46-6.66-.23.43-.51.83-.81,1.22"/>
    </clipPath>
    <linearGradient id="Gradiente_sem_nome_9" data-name="Gradiente sem nome 9" x1="0" y1="175.1" x2="1" y2="175.1" gradientTransform="translate(52.83 793.86) scale(4.24 -4.24)" gradientUnits="userSpaceOnUse">
      <stop offset="0" stop-color="#41648c"/>
      <stop offset=".22" stop-color="#527da9"/>
      <stop offset=".58" stop-color="#6aa2d2"/>
      <stop offset=".76" stop-color="#74b1e3"/>
      <stop offset="1" stop-color="#74b1e3"/>
    </linearGradient>
    <clipPath id="clippath-10">
      <path class="st23" d="M86.11,69.35c.34-.09.56-.18.7-.24l.14-.05c.96-.35,1.84-1.19,2.19-2.1.23-.61.23-1.2-.01-1.78-.95,2.02-1.99,3.18-3.02,4.17"/>
    </clipPath>
    <linearGradient id="Gradiente_sem_nome_10" data-name="Gradiente sem nome 10" x1="0" y1="175.1" x2="1" y2="175.1" gradientTransform="translate(86.11 628.15) scale(3.2 -3.2)" gradientUnits="userSpaceOnUse">
      <stop offset="0" stop-color="#41648c"/>
      <stop offset=".22" stop-color="#527da9"/>
      <stop offset=".58" stop-color="#6aa2d2"/>
      <stop offset=".76" stop-color="#74b1e3"/>
      <stop offset="1" stop-color="#74b1e3"/>
    </linearGradient>
    <clipPath id="clippath-11">
      <path class="st23" d="M50.01,40.15c-.38.61-.28,1.34-.05,1.98-.77.03-1.53.2-2,.8l-3.41,4.64c.78.25,1.62.4,2.5.4,1.76,0,3.39-.57,4.71-1.53.4,1.8.44,4.33-3.66,10.06-4.91,6.86-.55,14.94-.25,15.69.3.74.45,2.21-.93,3.25-1.37,1.05-5.19,3.41-5.19,3.41,0,0,3.32,2.99,8.24,2.24,2.22-.33,4.06-1.18,5.94-1.59.65-.18,1.35-.27,2.06-.27,2.31,0,4.39.99,5.83,2.57h8c.6,0,1.07-.48,1.07-1.06,0-.15-.03-.29-.09-.42h-6.78l-1.11-.97s-.04-.04-.08-.08l-2.61-2.36c.24-.12.51-.19.81-.19.99,0,1.8.81,1.8,1.8,0,.18-.03.34-.07.49,0,0,2.33,1.09,4.26-.72h0c.07-.39.11-.81.11-1.22,0-3.77-3.05-6.75-6.82-6.82-2.04-.03-2.88-.49-3.12-.57-1.78-.64-3.56-2.84-2.42-4.99,1.11-2.09,1.46-4.11,1.42-5.63h-3.16c-2.69,0-2.78-2.85-2.78-2.85,0-2.09,1.23-3.4,1.84-5.94.46-1.91-.51-4.04-1.01-4.96,1.25-1.41,2.01-3.27,2.01-5.3,0-1.73-.55-3.34-1.49-4.65l-3.54,4.81Z"/>
    </clipPath>
    <linearGradient id="Gradiente_sem_nome_11" data-name="Gradiente sem nome 11" x1="0" y1="175.1" x2="1" y2="175.1" gradientTransform="translate(41.72 5510.33) scale(31.13 -31.13)" gradientUnits="userSpaceOnUse">
      <stop offset="0" stop-color="#41648c"/>
      <stop offset=".22" stop-color="#527da9"/>
      <stop offset=".58" stop-color="#6aa2d2"/>
      <stop offset=".76" stop-color="#74b1e3"/>
      <stop offset="1" stop-color="#74b1e3"/>
    </linearGradient>
    <clipPath id="clippath-12">
      <path class="st23" d="M66.04,79.74s.13.11.13.11h6.23s-.09-.06-.14-.08l-.04-.02s-1.93-.88-2.81-1.27c-.15.14-1.4,1.36-3.36,1.27"/>
    </clipPath>
    <linearGradient id="Gradiente_sem_nome_12" data-name="Gradiente sem nome 12" x1="0" y1="175.1" x2="1" y2="175.1" gradientTransform="translate(66.04 1192.72) scale(6.36 -6.36)" gradientUnits="userSpaceOnUse">
      <stop offset="0" stop-color="#41648c"/>
      <stop offset=".22" stop-color="#527da9"/>
      <stop offset=".58" stop-color="#6aa2d2"/>
      <stop offset=".76" stop-color="#74b1e3"/>
      <stop offset="1" stop-color="#74b1e3"/>
    </linearGradient>
    <clipPath id="clippath-13">
      <path class="st23" d="M73.11,74.21c-1.41,0-2.78-.16-4.1-.46.24.47.42.96.54,1.48,1.16.21,2.36.32,3.58.32s2.42-.11,3.58-.32c.13-.52.32-1.02.55-1.49-1.33.31-2.72.47-4.16.47"/>
    </clipPath>
    <linearGradient id="Gradiente_sem_nome_13" data-name="Gradiente sem nome 13" x1="0" y1="175.1" x2="1" y2="175.1" gradientTransform="translate(69.01 1521.04) scale(8.26 -8.26)" gradientUnits="userSpaceOnUse">
      <stop offset="0" stop-color="#41648c"/>
      <stop offset=".22" stop-color="#527da9"/>
      <stop offset=".58" stop-color="#6aa2d2"/>
      <stop offset=".76" stop-color="#74b1e3"/>
      <stop offset="1" stop-color="#74b1e3"/>
    </linearGradient>
    <clipPath id="clippath-14">
      <path class="st23" d="M89.21,50.82c.12,2.61,1.56,4.43,1.25,7.58h.84c2,0,2.14-2.01,2.15-2.21,0-1.07-.39-1.95-.82-2.97-.35-.79-.73-1.69-1.01-2.82-.45-1.86.27-3.83.87-5.02-.31-.38-.58-.79-.82-1.22-.97,1.31-2.57,4.27-2.46,6.66"/>
    </clipPath>
    <linearGradient id="Gradiente_sem_nome_14" data-name="Gradiente sem nome 14" x1="0" y1="175.1" x2="1" y2="175.1" gradientTransform="translate(89.21 794.2) scale(4.24 -4.24)" gradientUnits="userSpaceOnUse">
      <stop offset="0" stop-color="#41648c"/>
      <stop offset=".22" stop-color="#527da9"/>
      <stop offset=".58" stop-color="#6aa2d2"/>
      <stop offset=".76" stop-color="#74b1e3"/>
      <stop offset="1" stop-color="#74b1e3"/>
    </linearGradient>
    <clipPath id="clippath-15">
      <path class="st23" d="M99.13,72.18c-.05.11-.09.19-.11.24-.1.25-.54,1.56.72,2.51.08.06.18.14.29.22,1.6-2.39,2.54-5.26,2.54-8.34s-.94-5.98-2.56-8.37c1.74,3.94,1.45,8.72-.88,13.75"/>
    </clipPath>
    <linearGradient id="Gradiente_sem_nome_15" data-name="Gradiente sem nome 15" x1="0" y1="175.1" x2="1" y2="175.1" gradientTransform="translate(98.87 715.47) scale(3.7 -3.7)" gradientUnits="userSpaceOnUse">
      <stop offset="0" stop-color="#41648c"/>
      <stop offset=".22" stop-color="#527da9"/>
      <stop offset=".58" stop-color="#6aa2d2"/>
      <stop offset=".76" stop-color="#74b1e3"/>
      <stop offset="1" stop-color="#74b1e3"/>
    </linearGradient>
    <clipPath id="clippath-16">
      <path class="st23" d="M91.24,39.99c0,2.03.76,3.89,2.01,5.3-.5.92-1.47,3.04-1.01,4.96.61,2.54,1.83,3.85,1.84,5.94,0,0-.1,2.85-2.78,2.85h-3.17c-.04,1.53.31,3.55,1.42,5.63,1.14,2.15-.64,4.35-2.42,4.99-.24.08-1.08.54-3.12.57-3.77.07-6.83,3.05-6.83,6.82,0,.42.04.83.11,1.22,0,0,0,0,0,0,1.92,1.81,4.25.72,4.25.72-.04-.15-.07-.31-.07-.49,0-.99.81-1.8,1.81-1.8.29,0,.56.07.81.19l-2.61,2.36s-.09.08-.09.08l-1.11.97h-6.78c-.06.13-.08.27-.08.42,0,.58.47,1.06,1.07,1.06h8c1.44-1.58,3.52-2.57,5.83-2.57.71,0,1.4.09,2.06.27,1.87.42,3.72,1.26,5.93,1.59,4.93.75,8.24-2.24,8.24-2.24,0,0-3.82-2.36-5.19-3.41-1.37-1.04-1.22-2.51-.93-3.25.3-.75,4.66-8.83-.25-15.69-4.1-5.73-4.07-8.26-3.66-10.06,1.32.97,2.95,1.53,4.7,1.53.87,0,1.72-.15,2.5-.4l-3.41-4.64c-.46-.61-1.23-.78-2-.8.23-.63.33-1.37-.05-1.98l-3.54-4.81c-.94,1.31-1.49,2.91-1.49,4.65"/>
    </clipPath>
    <linearGradient id="Gradiente_sem_nome_16" data-name="Gradiente sem nome 16" x1="0" y1="175.1" x2="1" y2="175.1" gradientTransform="translate(73.42 5510.13) scale(31.13 -31.13)" gradientUnits="userSpaceOnUse">
      <stop offset="0" stop-color="#41648c"/>
      <stop offset=".22" stop-color="#527da9"/>
      <stop offset=".58" stop-color="#6aa2d2"/>
      <stop offset=".76" stop-color="#74b1e3"/>
      <stop offset="1" stop-color="#74b1e3"/>
    </linearGradient>
    <clipPath id="clippath-17">
      <path class="st23" d="M74.07,79.74l-.04.02c-.05.03-.1.05-.14.08h6.22s.1-.09.14-.11c-1.96.1-3.22-1.12-3.36-1.27-.88.39-2.82,1.27-2.82,1.27"/>
    </clipPath>
    <linearGradient id="Gradiente_sem_nome_17" data-name="Gradiente sem nome 17" x1="0" y1="175.1" x2="1" y2="175.1" gradientTransform="translate(73.88 1192.72) scale(6.36 -6.36)" gradientUnits="userSpaceOnUse">
      <stop offset="0" stop-color="#41648c"/>
      <stop offset=".22" stop-color="#527da9"/>
      <stop offset=".58" stop-color="#6aa2d2"/>
      <stop offset=".76" stop-color="#74b1e3"/>
      <stop offset="1" stop-color="#74b1e3"/>
    </linearGradient>
    <clipPath id="clippath-18">
      <path class="st23" d="M71.83,50.91c0-.7.57-1.28,1.28-1.28s1.28.58,1.28,1.28-.57,1.28-1.28,1.28-1.28-.58-1.28-1.28M71.79,46.23c-1.13.09-1.45.77-1.48,1.04-.03.26-.12,1.29.95,1.1,1.15-.2,1.95.1,1.95.1,0,0,.21.09.27.14.12.13.04.31-.13.24,0,0-.09-.05-.24-.11-.33-.14-1.19-.27-1.94-.08-.76.18-2.1,1.13-2.48,2.77-.38,1.65,1.08,1.23,1.92,1.41,1.78.39,2.78,2.39,2.96,2.68.19.28,1.02,1.46,2,.96.98-.5.81-1.4.66-2.35-.16-.95.15-2.51.31-3.37.79-3.62-2.37-4.34-2.56-4.4-.36-.1-.79-.18-1.41-.18-.23,0-.49.01-.79.03"/>
    </clipPath>
    <linearGradient id="Gradiente_sem_nome_18" data-name="Gradiente sem nome 18" x1="0" y1="175.08" x2="1" y2="175.08" gradientTransform="translate(68.64 1458.71) scale(8.04 -8.04)" gradientUnits="userSpaceOnUse">
      <stop offset="0" stop-color="#41648c"/>
      <stop offset=".22" stop-color="#527da9"/>
      <stop offset=".58" stop-color="#6aa2d2"/>
      <stop offset=".76" stop-color="#74b1e3"/>
      <stop offset="1" stop-color="#74b1e3"/>
    </linearGradient>
    <clipPath id="clippath-19">
      <path class="st23" d="M66,61.3l.4-.53h1.28c.61.88,1.32,1.65,2.09,2.32-1.36-.38-2.63-.99-3.77-1.79M69.3,60.78h3.16v2.66c-1.18-.64-2.25-1.55-3.16-2.66M73.76,60.78h3.17c-.91,1.12-1.99,2.03-3.17,2.67v-2.67ZM78.56,60.78h.16l.77,1.02c-.94.56-1.95,1-3.02,1.3.77-.67,1.47-1.44,2.1-2.32M61.97,56.56h3.61c.23.72.51,1.41.83,2.06l-.73.97h-1.64c-.83-.89-1.53-1.92-2.07-3.03M66.97,56.56h.99l-.66.87c-.12-.28-.23-.57-.33-.87M67.94,58.74l1.65-2.18h2.86v3.03h-4.02c-.18-.28-.34-.56-.5-.85M80.32,57.5c.12-.31.23-.62.33-.94h3.61c-.54,1.11-1.24,2.14-2.07,3.03h-.29l-1.58-2.09ZM60.74,51.51h4.01c.02,1.34.2,2.63.49,3.86h-3.78c-.43-1.21-.69-2.51-.72-3.86M81.48,51.51h4.01c-.04,1.35-.29,2.65-.72,3.86h-3.78c.29-1.23.47-2.52.49-3.86M61.66,46.49h3.71c-.33,1.21-.54,2.5-.6,3.83h-4c.09-1.35.4-2.64.89-3.83M80.85,46.49h3.71c.49,1.19.8,2.49.89,3.83h-4c-.06-1.33-.27-2.62-.61-3.83M70.08,48.56c-.41-.47-.35-1.13-.32-1.35.05-.48.53-1.42,1.99-1.54.29-.02.57-.03.83-.03.59,0,1.08.06,1.57.19h.01c.91.25,1.8.76,2.38,1.57l.68-.9h2.25c.36,1.21.58,2.49.65,3.83h-2.93c-.02.18-.05.36-.09.55l-.03.19c-.03.13-.06.28-.08.44h3.15c-.03,1.34-.21,2.64-.53,3.86h-.9l-1.91-2.53c-.05.45-.06.88,0,1.2v.05c.16.93.37,2.2-.95,2.88l1.96,2.59s-.01.01-.01.02h-4.03v-3.01c-.27-.25-.49-.53-.64-.76-.03-.04-.06-.1-.1-.17-.11-.18-.29-.5-.56-.85v.57h-1.97l1.11-1.45c-.32-.25-.68-.44-1.09-.53-.04,0-.08-.01-.12-.02l-1.52,2.01h-2.26c-.32-1.22-.5-2.52-.53-3.86h2.02c.01-.07.03-.14.04-.21.08-.36.2-.68.35-.98h-2.4c.07-1.34.29-2.63.65-3.83h1.15l1.79,2.36c.13-.1.26-.2.39-.29M78.73,44.5c.12.26.23.53.34.8h-.94l.61-.8ZM64.53,42.27h.19l1.47,1.94c-.16.36-.31.72-.44,1.09h-3.52c.62-1.13,1.39-2.15,2.31-3.03M68.8,42.27h3.66v3.03h-1.37l-2.29-3.03ZM73.76,42.27h3.69c.22.31.42.63.62.96l-1.57,2.07h-2.74v-3.03ZM79.62,43.33l.8-1.06h1.28c.92.89,1.7,1.91,2.31,3.03h-3.52c-.25-.69-.54-1.35-.86-1.97M67.29,40.26c.78-.42,1.61-.75,2.48-1-.61.54-1.19,1.15-1.72,1.82h-.14l-.62-.82ZM76.46,39.26c1.23.35,2.39.88,3.43,1.57l-.19.25h-1.52c-.53-.67-1.1-1.28-1.72-1.82M72.46,38.92v2.16h-2.72c.81-.88,1.72-1.62,2.72-2.16M73.76,38.92c1,.54,1.92,1.28,2.73,2.16h-2.73v-2.16ZM71.07,36.16l1.39-.73v2.14c-.78.03-1.54.14-2.28.3-.76.17-1.5.4-2.21.69h0c-.62.25-1.21.55-1.79.89,0,0,0,0-.01,0-.07.05-.15.1-.23.14,0,0-.01,0-.02.01-.07.05-.15.09-.23.15l-1.39-1.84,1.55-.26-2.23-1.25-2.23-1.25.61,2.48.6,2.49.66-1.43,1.37,1.81s-.05.04-.08.07c0,0-.02.02-.03.02-.06.05-.13.1-.19.15-.02,0-.03.02-.04.03-.06.05-.12.1-.18.16-.01.01-.02.02-.03.04-.06.05-.13.11-.19.17,0,0,0,0,0,0-.21.19-.41.38-.6.59h0c-.05.05-.11.12-.16.17-.02.02-.04.04-.05.05-.05.05-.1.1-.15.16-.02.02-.04.05-.06.07-.04.05-.09.1-.13.16-.02.02-.04.05-.06.07-.05.05-.09.11-.13.16-.02.02-.04.05-.06.07-.04.06-.09.11-.13.17,0,0-.02.02-.02.03-.11.14-.2.27-.31.41,0,0,0,.01-.01.02-.04.05-.07.11-.11.16-.02.03-.04.06-.06.09-.03.05-.06.1-.1.15-.03.04-.05.07-.07.11-.03.04-.06.1-.09.15-.02.04-.05.07-.07.11-.03.05-.06.1-.09.15-.02.04-.05.08-.07.12-.03.05-.06.1-.09.15-.02.04-.05.08-.07.12-.02.05-.05.09-.08.15-.05.08-.09.16-.13.24-.03.05-.05.09-.07.14-.02.05-.05.1-.07.15-.02.05-.04.09-.06.14-.03.05-.05.1-.07.14-.02.05-.04.09-.06.14-.02.05-.04.1-.07.15-.02.05-.03.1-.06.14-.02.05-.05.1-.06.16-.02.04-.04.09-.06.13-.02.05-.04.11-.06.17-.02.04-.03.08-.05.12-.03.07-.05.15-.08.22-.02.04-.03.07-.04.1-.03.09-.06.17-.08.26,0,.04-.02.08-.04.11-.02.06-.04.13-.05.19-.01.04-.02.08-.04.12-.02.06-.03.12-.05.18-.01.04-.03.09-.03.13-.02.06-.03.12-.04.18-.01.04-.03.09-.03.13-.01.06-.03.12-.04.19,0,.04-.02.08-.03.12-.02.08-.03.16-.04.23,0,.03-.01.06-.02.09-.02.11-.03.21-.05.32,0,.03,0,.05-.01.08,0,.08-.02.16-.03.24,0,.04-.01.08-.02.12,0,.07-.02.14-.03.21,0,.04,0,.09,0,.13,0,.07-.01.13-.02.2,0,.04,0,.09,0,.13,0,.06-.01.13-.01.2,0,.04-.01.09-.01.13,0,.07,0,.15,0,.22v.11c0,.11,0,.22,0,.33s0,.22,0,.33v.11c0,.07,0,.15,0,.22,0,.04,0,.08.01.13,0,.06,0,.13.01.2,0,.04,0,.09,0,.13,0,.07,0,.13.02.2,0,.04,0,.08,0,.13,0,.07.02.14.03.2,0,.04,0,.08.02.12,0,.08.02.16.03.24,0,.02.01.05.01.08.02.11.03.21.05.31,0,.03.01.06.02.09.01.07.03.15.04.22,0,.04.02.08.03.12.01.06.03.13.04.19,0,.04.02.08.03.13.01.06.03.12.04.18,0,.04.02.09.03.13.02.06.03.12.05.18.01.04.02.08.04.13.02.06.04.13.05.19.01.04.03.07.04.11.03.08.06.17.08.26,0,.03.02.06.04.1.02.08.05.15.08.23.02.04.03.08.05.12.02.06.04.11.06.17.02.05.03.09.06.13.01.06.04.11.06.16.02.05.03.09.06.14.03.05.05.1.07.15.02.05.04.09.06.14.02.05.05.1.07.15.02.04.04.09.06.13.03.05.05.1.07.15.02.04.04.08.07.13.05.09.09.17.14.26.02.04.06.1.08.14.02.04.05.09.07.13.03.05.06.1.09.14.02.04.05.08.07.12.03.05.06.1.09.15.02.03.05.08.07.12.03.05.06.09.09.14.03.03.04.07.07.1.03.05.07.1.1.15.02.03.04.06.06.09.04.05.07.1.11.16,0,0,.01.02.02.03.1.13.19.27.29.4.01.01.02.03.03.04.04.06.09.11.13.17.02.02.04.05.06.07.04.05.09.11.13.16.02.03.04.05.06.07.05.05.09.1.13.15.02.02.04.04.06.07.05.05.09.1.15.16,0,.01.03.04.05.05.05.06.11.11.16.17t0,0c.19.19.39.39.6.58,0,0,0,0,0,0,.06.06.12.11.19.17.01.01.02.03.03.03.03.03.07.06.1.09l-.82,1.09-1.56-.23-2.53,3.33,2.36.26.9,2.21,2.53-3.34-.66-1.45.81-1.07c.22.16.45.31.68.45,0,0,.01.01.02.01.07.05.16.1.23.14,0,0,.01,0,.01,0,.58.34,1.17.64,1.79.89h0c.71.29,1.45.52,2.21.68.74.16,1.5.27,2.28.31v1.6l-1.39.76v4.19l2.04-1.22,2.05,1.22v-4.19l-1.4-.76v-1.6c.79-.04,1.55-.14,2.3-.31.09-.02.19-.04.28-.06.66-.16,1.31-.37,1.93-.62h0c.62-.25,1.21-.55,1.78-.89h.02c.07-.05.15-.1.23-.15,0,0,0,0,.01-.01.27-.16.53-.34.8-.53l.87,1.15-.66,1.45,2.53,3.34.89-2.21,2.36-.26-2.53-3.33-1.57.23-.9-1.18s.02-.02.03-.03c.06-.06.12-.11.19-.17,0,0,0,0,0,0,.21-.19.4-.39.6-.58h0c.06-.06.11-.11.16-.17.02-.02.03-.04.04-.05.05-.05.1-.11.15-.16.02-.02.04-.05.06-.07.04-.05.09-.1.13-.15.02-.03.04-.04.06-.07.05-.05.09-.1.13-.16.02-.02.04-.05.05-.07.05-.05.09-.11.14-.17,0-.01.01-.02.02-.03.1-.13.2-.27.3-.41,0,0,.01-.01.01-.02.04-.05.08-.11.11-.16.02-.03.04-.06.07-.09.03-.05.07-.1.1-.15.02-.03.05-.07.07-.1.03-.05.07-.1.1-.15.03-.04.05-.07.07-.11.03-.05.06-.1.09-.15.02-.03.05-.08.07-.12.03-.05.06-.1.08-.15.03-.04.05-.08.07-.12.03-.05.05-.1.08-.15.04-.07.08-.14.11-.21.03-.06.06-.12.09-.18.03-.04.05-.09.07-.14.02-.05.04-.09.07-.14.02-.05.04-.1.07-.15.01-.05.04-.09.06-.14.03-.05.04-.1.06-.15.02-.04.04-.09.06-.14.02-.05.04-.1.06-.16.01-.04.04-.09.05-.13.02-.06.05-.11.07-.17.01-.04.03-.08.04-.12.03-.08.05-.15.08-.22.01-.03.03-.07.04-.11.03-.08.05-.17.08-.25.01-.04.02-.07.03-.11.02-.06.04-.12.06-.19.01-.04.02-.09.03-.13.02-.06.03-.12.05-.18.01-.05.02-.09.03-.13.01-.06.03-.12.05-.18.01-.04.02-.08.03-.13.01-.07.03-.13.04-.19,0-.04.02-.08.03-.12.01-.07.03-.15.04-.22,0-.03.01-.06.01-.09.02-.1.04-.21.05-.31,0-.03,0-.06.01-.08.01-.08.02-.16.03-.24,0-.04,0-.08.01-.12.01-.07.02-.13.03-.2,0-.04,0-.08.01-.13,0-.07.02-.13.02-.2,0-.04.01-.08.01-.13,0-.07,0-.14,0-.21,0-.04.01-.08.01-.12,0-.08,0-.15,0-.22,0-.04,0-.07,0-.11,0-.11,0-.22,0-.33s0-.22,0-.33c0-.04,0-.07,0-.11,0-.07,0-.15,0-.22,0-.04,0-.09-.01-.12,0-.07,0-.14,0-.2,0-.04,0-.09-.01-.13,0-.07-.01-.13-.02-.2,0-.04,0-.09-.01-.13,0-.07-.01-.14-.03-.21,0-.04,0-.08-.01-.12-.01-.08-.02-.16-.03-.24,0-.03,0-.06-.01-.08-.01-.1-.03-.21-.05-.31,0-.03,0-.06-.01-.09-.01-.07-.03-.15-.04-.23-.01-.04-.02-.08-.03-.12-.01-.06-.03-.13-.04-.19-.01-.04-.02-.09-.03-.13-.01-.06-.03-.12-.05-.18,0-.04-.02-.08-.03-.13-.02-.06-.03-.12-.05-.18-.01-.04-.02-.08-.03-.13-.02-.06-.04-.12-.06-.19-.02-.04-.02-.08-.03-.11-.03-.09-.06-.17-.08-.26-.01-.04-.03-.07-.04-.1-.03-.08-.05-.15-.08-.23-.01-.04-.03-.08-.04-.12-.02-.06-.04-.11-.07-.17-.01-.05-.04-.09-.05-.13-.02-.05-.04-.11-.06-.16-.02-.04-.03-.09-.06-.14-.02-.05-.04-.1-.06-.15-.02-.04-.04-.09-.06-.14-.02-.05-.05-.1-.07-.14-.03-.04-.04-.09-.06-.14-.03-.05-.05-.1-.08-.15-.02-.04-.05-.09-.07-.14-.04-.08-.09-.16-.14-.24-.02-.05-.05-.1-.07-.15-.02-.04-.05-.08-.07-.12-.03-.05-.06-.1-.08-.15-.02-.04-.05-.08-.07-.12-.03-.05-.06-.1-.09-.15-.02-.04-.04-.07-.07-.12-.03-.05-.06-.09-.09-.14-.02-.03-.05-.07-.07-.11-.04-.05-.07-.1-.1-.15l-.07-.09c-.04-.05-.07-.1-.11-.16,0-.01,0-.01-.01-.03-.1-.14-.2-.27-.3-.4,0-.01-.02-.02-.03-.04-.05-.06-.09-.11-.14-.17-.01-.02-.04-.04-.05-.07-.04-.05-.09-.11-.13-.16-.02-.02-.04-.05-.06-.07-.05-.05-.09-.11-.13-.16-.03-.02-.04-.04-.06-.07-.05-.05-.09-.1-.15-.15-.01-.02-.03-.04-.05-.06-.05-.05-.1-.11-.16-.17h0c-.19-.2-.39-.4-.6-.58,0,0,0,0,0,0-.06-.06-.12-.11-.18-.17-.01-.01-.03-.02-.04-.04-.06-.05-.12-.1-.18-.16-.01-.01-.03-.02-.04-.04-.06-.05-.13-.1-.19-.15,0,0,0,0,0,0l1.43-1.9.66,1.43.61-2.49.61-2.48-2.23,1.25-2.23,1.25,1.55.26-1.45,1.91c-.11-.07-.22-.15-.34-.22,0,0-.01,0-.01-.01-.08-.05-.16-.09-.23-.14,0,0-.01,0-.02,0-.57-.34-1.16-.63-1.78-.89h0c-.71-.29-1.45-.52-2.22-.69-.74-.16-1.51-.27-2.3-.3v-2.13l1.39.73-1.02-2.35-1.02-2.34-2.04,4.69Z"/>
    </clipPath>
    <linearGradient id="Gradiente_sem_nome_19" data-name="Gradiente sem nome 19" x1="0" y1="175.1" x2="1" y2="175.1" gradientTransform="translate(59.3 4921.93) scale(27.82 -27.82)" gradientUnits="userSpaceOnUse">
      <stop offset="0" stop-color="#41648c"/>
      <stop offset=".22" stop-color="#527da9"/>
      <stop offset=".58" stop-color="#6aa2d2"/>
      <stop offset=".76" stop-color="#74b1e3"/>
      <stop offset="1" stop-color="#74b1e3"/>
    </linearGradient>
    <clipPath id="clippath-20">
      <path class="st23" d="M78.6,24.39l.75-3.07h0s0-.01,0-.01c.21-.83,1.05-1.34,1.88-1.13.84.2,1.35,1.04,1.15,1.88h0s0,.01,0,.01l-.75,3.07-3.03-.74ZM63.75,22.06h0c-.22-.84.27-1.69,1.1-1.91.83-.22,1.68.27,1.91,1.1h0s0,0,0,0l.82,3.1-3.01.8-.83-3.1ZM71.54,20.68c0-.86.7-1.55,1.56-1.55s1.55.69,1.56,1.55h0v3.32h-3.12v-3.32ZM69.93,17.08l.12,1.27c-.75.07-1.51.16-2.25.28l-.2-1.26-6.14,1.56.43,1.21c-.7.25-1.39.51-2.06.81l-.51-1.18-2.89,1.4.8,1.49s0,0,0,0l.23.43c.74-.36,1.63-.08,2.04.64h0s1.4,2.55,1.4,2.55l-1.33.74.62,1.16c3.94-1.76,8.31-2.75,12.91-2.75s8.96.98,12.9,2.75l.63-1.17-1.35-.71,1.36-2.59h0s0,0,0,0h0c.4-.76,1.34-1.06,2.1-.66,0,0,0,0,0,0l.41-.75s0,0,0,0l.61-1.12-2.86-1.39-.5,1.17c-.68-.29-1.36-.56-2.06-.81l.42-1.2-6.14-1.57-.2,1.26c-.75-.11-1.52-.21-2.29-.28l.12-1.27h-6.34Z"/>
    </clipPath>
    <linearGradient id="Gradiente_sem_nome_20" data-name="Gradiente sem nome 20" x1="0" y1="175.1" x2="1" y2="175.1" gradientTransform="translate(56.42 5861.89) scale(33.35 -33.35)" gradientUnits="userSpaceOnUse">
      <stop offset="0" stop-color="#41648c"/>
      <stop offset=".22" stop-color="#527da9"/>
      <stop offset=".58" stop-color="#6aa2d2"/>
      <stop offset=".76" stop-color="#74b1e3"/>
      <stop offset="1" stop-color="#74b1e3"/>
    </linearGradient>
    <clipPath id="clippath-21">
      <path class="st23" d="M60.53,16.25l.57,1.64q3.17-.8,3.17-.8s0,0,3.15-.8l-.28-1.71c-6.65,1.69-.05.01-6.61,1.68"/>
    </clipPath>
    <linearGradient id="Gradiente_sem_nome_21" data-name="Gradiente sem nome 21" x1="0" y1="175.1" x2="1" y2="175.1" gradientTransform="translate(60.53 1221.53) scale(6.88 -6.88)" gradientUnits="userSpaceOnUse">
      <stop offset="0" stop-color="#41648c"/>
      <stop offset=".22" stop-color="#527da9"/>
      <stop offset=".58" stop-color="#6aa2d2"/>
      <stop offset=".76" stop-color="#74b1e3"/>
      <stop offset="1" stop-color="#74b1e3"/>
    </linearGradient>
    <clipPath id="clippath-22">
      <path class="st23" d="M56.64,17.92s0,0-1.55.75l.82,1.52q1.48-.72,1.48-.72s0,0,1.49-.72l-.69-1.59q-1.55.75-1.55.75"/>
    </clipPath>
    <linearGradient id="Gradiente_sem_nome_22" data-name="Gradiente sem nome 22" x1="0" y1="175.1" x2="1" y2="175.1" gradientTransform="translate(55.09 681.8) scale(3.79 -3.79)" gradientUnits="userSpaceOnUse">
      <stop offset="0" stop-color="#41648c"/>
      <stop offset=".22" stop-color="#527da9"/>
      <stop offset=".58" stop-color="#6aa2d2"/>
      <stop offset=".76" stop-color="#74b1e3"/>
      <stop offset="1" stop-color="#74b1e3"/>
    </linearGradient>
    <clipPath id="clippath-23">
      <polygon class="st23" points="69.7 14.26 69.84 16.01 76.35 16.01 76.51 14.26 69.7 14.26"/>
    </clipPath>
    <linearGradient id="Gradiente_sem_nome_23" data-name="Gradiente sem nome 23" x1="0" y1="175.1" x2="1" y2="175.1" gradientTransform="translate(69.7 1207.42) scale(6.81 -6.81)" gradientUnits="userSpaceOnUse">
      <stop offset="0" stop-color="#41648c"/>
      <stop offset=".22" stop-color="#527da9"/>
      <stop offset=".58" stop-color="#6aa2d2"/>
      <stop offset=".76" stop-color="#74b1e3"/>
      <stop offset="1" stop-color="#74b1e3"/>
    </linearGradient>
    <clipPath id="clippath-24">
      <path class="st23" d="M78.83,16.31c6.31,1.61,0,0,6.3,1.61l.58-1.65c-6.59-1.68-.01,0-6.59-1.68l-.29,1.72Z"/>
    </clipPath>
    <linearGradient id="Gradiente_sem_nome_24" data-name="Gradiente sem nome 24" x1="0" y1="175.1" x2="1" y2="175.1" gradientTransform="translate(78.83 1220.36) scale(6.88 -6.88)" gradientUnits="userSpaceOnUse">
      <stop offset="0" stop-color="#41648c"/>
      <stop offset=".22" stop-color="#527da9"/>
      <stop offset=".58" stop-color="#6aa2d2"/>
      <stop offset=".76" stop-color="#74b1e3"/>
      <stop offset="1" stop-color="#74b1e3"/>
    </linearGradient>
    <clipPath id="clippath-25">
      <path class="st23" d="M87.35,18.79q1.47.72,1.47.72s0,0,1.46.71l.82-1.54c-3.06-1.49,0,0-3.06-1.49l-.69,1.6Z"/>
    </clipPath>
    <linearGradient id="Gradiente_sem_nome_25" data-name="Gradiente sem nome 25" x1="0" y1="175.1" x2="1" y2="175.1" gradientTransform="translate(87.35 675.1) scale(3.75 -3.75)" gradientUnits="userSpaceOnUse">
      <stop offset="0" stop-color="#41648c"/>
      <stop offset=".22" stop-color="#527da9"/>
      <stop offset=".58" stop-color="#6aa2d2"/>
      <stop offset=".76" stop-color="#74b1e3"/>
      <stop offset="1" stop-color="#74b1e3"/>
    </linearGradient>
    <clipPath id="clippath-26">
      <path class="st23" d="M73.1,28.14c2.9,0,5.71.43,8.35,1.23h-16.71c2.65-.8,5.45-1.23,8.36-1.23M60.84,29.37h-5.91v6.99c.56,1.17.84,2.41.8,3.66-.05,1.56-.28,2.39-.79,3.54.36.46.83,1.17,1.28,2.02v-14.86h33.78v14.95c.47-.89.95-1.64,1.33-2.11-.51-1.15-.74-1.99-.79-3.54-.04-1.25.23-2.49.8-3.66v-6.98h-6c-3.75-1.66-7.89-2.59-12.25-2.59s-8.51.93-12.26,2.59"/>
    </clipPath>
    <linearGradient id="Gradiente_sem_nome_26" data-name="Gradiente sem nome 26" x1="0" y1="175.1" x2="1" y2="175.1" gradientTransform="translate(54.93 6411.55) scale(36.41 -36.41)" gradientUnits="userSpaceOnUse">
      <stop offset="0" stop-color="#41648c"/>
      <stop offset=".22" stop-color="#527da9"/>
      <stop offset=".58" stop-color="#6aa2d2"/>
      <stop offset=".76" stop-color="#74b1e3"/>
      <stop offset="1" stop-color="#74b1e3"/>
    </linearGradient>
  </defs>
  <g class="st53">
    <path class="st6" d="M62.26,159.6v-49.47c0-.24.2-.44.44-.44h12.46c.24,0,.44.2.44.44v49.47c0,.24-.2.44-.44.44h-12.46c-.24,0-.44-.2-.44-.44"/>
    <path class="st6" d="M104.64,108.84c-14.36,0-26,11.64-26,26s11.64,26,26,26,26-11.64,26-26-11.64-26-26-26M104.64,147.8c-7.16,0-12.96-5.8-12.96-12.96s5.8-12.96,12.96-12.96,12.96,5.8,12.96,12.96-5.8,12.96-12.96,12.96"/>
    <path class="st6" d="M43.99,159.8l-8.21-16.57c-.07-.15-.23-.24-.39-.24h-5.93c-.24,0-.44.2-.44.44v16.18c0,.24-.2.44-.44.44h-12.1c-.24,0-.44-.2-.44-.44v-49.46c0-.24.2-.44.44-.44h24.77c11.17,0,17.51,7.4,17.51,16.76,0,8.47-5.01,13.12-9.57,14.92-.25.1-.35.39-.22.62l9.66,17.4c.16.29-.05.65-.38.65h-13.85c-.17,0-.32-.1-.39-.25M39.28,120.64h-9.83c-.24,0-.44.2-.44.44v10.44c0,.24.2.44.44.44h9.83c3.4,0,6.26-2.19,6.26-5.66s-2.87-5.66-6.26-5.66"/>
    <path class="st6" d="M22.49,92.33c.62.28,1.1.68,1.43,1.19.34.52.5,1.13.5,1.82s-.17,1.31-.5,1.82c-.34.51-.81.91-1.43,1.19-.62.28-1.35.42-2.19.42h-1.62v2.43h-2.63v-9.29h4.25c.84,0,1.57.14,2.19.42M21.36,96.35c.27-.23.41-.57.41-1s-.14-.77-.41-1.01c-.27-.24-.68-.36-1.22-.36h-1.46v2.72h1.46c.54,0,.95-.12,1.22-.35"/>
    <path class="st6" d="M32.41,98.73h-1.43v2.47h-2.63v-9.29h4.25c.84,0,1.57.14,2.19.42.62.28,1.1.68,1.43,1.19.34.52.5,1.13.5,1.82s-.16,1.26-.47,1.76c-.31.5-.76.89-1.35,1.17l2,2.92h-2.81l-1.69-2.47ZM33.66,94.34c-.27-.24-.68-.36-1.22-.36h-1.46v2.72h1.46c.54,0,.95-.12,1.22-.35.27-.23.41-.57.41-1s-.14-.77-.41-1.01"/>
    <polygon class="st6" points="48.28 99.17 48.28 101.2 40.82 101.2 40.82 91.91 48.11 91.91 48.11 93.94 43.42 93.94 43.42 95.51 47.55 95.51 47.55 97.47 43.42 97.47 43.42 99.17 48.28 99.17"/>
    <polygon class="st6" points="55.02 93.94 55.02 95.99 59.12 95.99 59.12 98.02 55.02 98.02 55.02 101.2 52.39 101.2 52.39 91.91 59.68 91.91 59.68 93.94 55.02 93.94"/>
    <polygon class="st6" points="71.02 99.17 71.02 101.2 63.56 101.2 63.56 91.91 70.85 91.91 70.85 93.94 66.16 93.94 66.16 95.51 70.29 95.51 70.29 97.47 66.16 97.47 66.16 99.17 71.02 99.17"/>
    <rect class="st6" x="75.13" y="91.91" width="2.63" height="9.29"/>
    <polygon class="st6" points="84.26 94 81.41 94 81.41 91.91 89.73 91.91 89.73 94 86.89 94 86.89 101.2 84.26 101.2 84.26 94"/>
    <path class="st6" d="M94.28,100.26c-.77-.75-1.15-1.82-1.15-3.2v-5.15h2.63v5.07c0,1.49.59,2.23,1.76,2.23s1.75-.74,1.75-2.23v-5.07h2.59v5.15c0,1.38-.38,2.44-1.15,3.2-.77.75-1.84,1.13-3.22,1.13s-2.45-.38-3.22-1.13"/>
    <path class="st6" d="M110.36,98.73h-1.43v2.47h-2.63v-9.29h4.25c.84,0,1.57.14,2.19.42.62.28,1.1.68,1.43,1.19.34.52.5,1.13.5,1.82s-.16,1.26-.47,1.76c-.31.5-.76.89-1.35,1.17l2,2.92h-2.81l-1.68-2.47ZM111.6,94.34c-.27-.24-.68-.36-1.22-.36h-1.46v2.72h1.46c.54,0,.95-.12,1.22-.35.27-.23.41-.57.41-1s-.14-.77-.41-1.01"/>
    <path class="st6" d="M124.99,99.4h-3.93l-.73,1.8h-2.68l4.1-9.29h2.59l4.11,9.29h-2.73l-.73-1.8ZM124.22,97.46l-1.19-2.97-1.19,2.97h2.39Z"/>
  </g>
  <g class="st27">
    <rect class="st24" x="53.47" y="79.85" width="9.41" height="1.93"/>
  </g>
  <g class="st47">
    <rect class="st16" x="83.4" y="79.85" width="9.41" height="1.93"/>
  </g>
  <g class="st34">
    <rect class="st48" x="37.62" y="27.32" width="17.18" height="20.42"/>
  </g>
  <g class="st10">
    <rect class="st41" x="92.13" y="27.35" width="16.96" height="20.51"/>
  </g>
  <g class="st30">
    <rect class="st5" x="95.96" y="48.15" width="8.83" height="10.48"/>
  </g>
  <g class="st2">
    <rect class="st43" x="41.04" y="48.06" width="9.43" height="9.88"/>
  </g>
  <g class="st3">
    <rect class="st39" x="43.7" y="58.43" width="4.09" height="16.72"/>
  </g>
  <g class="st32">
    <rect class="st50" x="56.94" y="65.18" width="3.26" height="4.17"/>
  </g>
  <g class="st14">
    <rect class="st8" x="52.83" y="44.15" width="4.34" height="14.24"/>
  </g>
  <g class="st15">
    <rect class="st44" x="86.11" y="65.18" width="3.26" height="4.17"/>
  </g>
  <g class="st21">
    <rect class="st17" x="41.72" y="35.34" width="31.13" height="46.48"/>
  </g>
  <g class="st37">
    <rect class="st28" x="66.04" y="78.47" width="6.36" height="1.37"/>
  </g>
  <g class="st49">
    <rect class="st26" x="69.01" y="73.74" width="8.26" height="1.81"/>
  </g>
  <g class="st38">
    <rect class="st54" x="89.11" y="44.15" width="4.34" height="14.25"/>
  </g>
  <g class="st7">
    <rect class="st29" x="98.49" y="58.43" width="4.09" height="16.72"/>
  </g>
  <g class="st46">
    <rect class="st42" x="73.42" y="35.34" width="31.13" height="46.48"/>
  </g>
  <g class="st4">
    <rect class="st20" x="73.88" y="78.47" width="6.36" height="1.37"/>
  </g>
  <g class="st9">
    <rect class="st51" x="68.32" y="46.19" width="9.02" height="10.79"/>
  </g>
  <g class="st40">
    <rect class="st25" x="59.3" y="31.47" width="27.81" height="39.88"/>
  </g>
  <g class="st31">
    <rect class="st45" x="56.42" y="17.08" width="33.35" height="11.1"/>
  </g>
  <g class="st0">
    <rect class="st1" x="60.49" y="14.57" width="6.93" height="3.31"/>
  </g>
  <g class="st11">
    <rect class="st33" x="55.09" y="17.17" width="3.79" height="3.03"/>
  </g>
  <g class="st12">
    <rect class="st19" x="69.7" y="14.26" width="6.81" height="1.75"/>
  </g>
  <g class="st52">
    <rect class="st36" x="78.83" y="14.58" width="6.88" height="3.34"/>
  </g>
  <g class="st18">
    <rect class="st22" x="87.35" y="17.18" width="3.75" height="3.03"/>
  </g>
  <g class="st35">
    <rect class="st13" x="54.93" y="26.78" width="36.41" height="18.89"/>
  </g>
</svg>